<svg xmlns="http://www.w3.org/2000/svg" width="223.418" height="145.325" viewBox="0 0 223.418 145.325">
  <g id="Groupe_918" data-name="Groupe 918" transform="translate(-48.582 -272.945)">
    <g id="Groupe_543" data-name="Groupe 543" transform="translate(48.582 272.945)">
      <path id="Tracé_989" data-name="Tracé 989" d="M250.559,643.793H184.967s-1.33-19.5,6.537-19.722,6.98,8.642,16.841-3.545S230.173,609,231.724,616.2s-2.992,12.963,5.318,11.19S257.318,630.275,250.559,643.793Z" transform="translate(-175.203 -498.788)" fill="#f7e045"/>
      <path id="Tracé_990" data-name="Tracé 990" d="M313.477,643.446l-.221-.009c.516-12.839,3.205-21.088,5.37-25.747,2.35-5.059,4.615-7.107,4.638-7.127l.147.166c-.022.02-2.261,2.048-4.592,7.072C316.666,622.44,313.992,630.655,313.477,643.446Z" transform="translate(-272.024 -498.436)" fill="#f2f2f2"/>
      <path id="Tracé_991" data-name="Tracé 991" d="M410.09,700.086l-.213-.062a34.374,34.374,0,0,1,8.654-14.4l.149.164A34.141,34.141,0,0,0,410.09,700.086Z" transform="translate(-344.897 -555.05)" fill="#f2f2f2"/>
      <path id="Tracé_992" data-name="Tracé 992" d="M209.413,685.183l-.22-.031a24.134,24.134,0,0,0-2.171-14.107,19.422,19.422,0,0,0-3.426-5l.153-.16a19.666,19.666,0,0,1,3.471,5.061A24.355,24.355,0,0,1,209.413,685.183Z" transform="translate(-189.317 -540.163)" fill="#f2f2f2"/>
      <path id="Tracé_993" data-name="Tracé 993" d="M237.605,619.434H156.037l-.019-.276c-.047-.687-1.087-16.9,4.166-22.686a5.754,5.754,0,0,1,4.2-2.018,12.513,12.513,0,0,1,7.312,2.215c3.272,1.941,5.433,3.223,13.291-6.489,8.513-10.522,17.7-12.785,22.978-11.527a8.2,8.2,0,0,1,6.451,6.307,27.989,27.989,0,0,1,.277,8.152c-.178,2.444-.319,4.374.684,5.249.838.73,2.51.8,5.263.209,5.6-1.194,13.411-.172,17.333,4.894,2.11,2.726,3.772,7.68-.291,15.805Zm-81.012-.593h80.645c3.027-6.142,3.122-11.33.271-15.014-3.6-4.648-11.144-5.871-16.74-4.677-2.991.638-4.773.533-5.776-.342-1.227-1.069-1.077-3.13-.886-5.739a27.5,27.5,0,0,0-.265-7.984,7.622,7.622,0,0,0-6.009-5.855c-5.112-1.22-14.04,1.016-22.379,11.323-8.18,10.11-10.644,8.649-14.054,6.626a11.886,11.886,0,0,0-6.993-2.132,5.182,5.182,0,0,0-3.783,1.824C155.9,602.069,156.478,616.649,156.593,618.841Z" transform="translate(-153.347 -474.133)" fill="#cfcce0"/>
      <path id="Tracé_994" data-name="Tracé 994" d="M743.421,483.045l-23.73-4.126c4.242-8.8,6.18-17.49,4.524-26.018l23.73,4.126a52.723,52.723,0,0,0-4.524,26.018Z" transform="translate(-578.564 -379.526)" fill="#f2f2f2"/>
      <rect id="Rectangle_64" data-name="Rectangle 64" width="12.478" height="0.58" transform="translate(150.549 79.088) rotate(9.864)" fill="#3f3d56"/>
      <rect id="Rectangle_65" data-name="Rectangle 65" width="12.478" height="0.58" transform="translate(150.151 81.376) rotate(9.864)" fill="#3f3d56"/>
      <rect id="Rectangle_66" data-name="Rectangle 66" width="12.478" height="0.58" transform="translate(149.753 83.663) rotate(9.864)" fill="#3f3d56"/>
      <rect id="Rectangle_67" data-name="Rectangle 67" width="12.478" height="0.58" transform="translate(149.356 85.95) rotate(9.864)" fill="#3f3d56"/>
      <rect id="Rectangle_68" data-name="Rectangle 68" width="12.478" height="0.58" transform="translate(148.958 88.237) rotate(9.864)" fill="#3f3d56"/>
      <rect id="Rectangle_69" data-name="Rectangle 69" width="12.478" height="0.58" transform="translate(148.56 90.525) rotate(9.864)" fill="#3f3d56"/>
      <rect id="Rectangle_70" data-name="Rectangle 70" width="12.478" height="0.58" transform="translate(148.163 92.812) rotate(9.864)" fill="#3f3d56"/>
      <rect id="Rectangle_71" data-name="Rectangle 71" width="12.478" height="0.58" transform="translate(147.765 95.099) rotate(9.864)" fill="#3f3d56"/>
      <path id="Tracé_995" data-name="Tracé 995" d="M786.421,517.045l-23.73-4.126c4.242-8.8,6.18-17.49,4.524-26.018l23.73,4.126A52.723,52.723,0,0,0,786.421,517.045Z" transform="translate(-610.995 -405.169)" fill="#f2f2f2"/>
      <rect id="Rectangle_72" data-name="Rectangle 72" width="12.478" height="0.58" transform="translate(161.118 87.445) rotate(9.864)" fill="#3f3d56"/>
      <rect id="Rectangle_73" data-name="Rectangle 73" width="12.478" height="0.58" transform="translate(160.72 89.732) rotate(9.864)" fill="#3f3d56"/>
      <rect id="Rectangle_74" data-name="Rectangle 74" width="12.478" height="0.58" transform="translate(160.322 92.02) rotate(9.864)" fill="#3f3d56"/>
      <rect id="Rectangle_75" data-name="Rectangle 75" width="12.478" height="0.58" transform="translate(159.925 94.307) rotate(9.864)" fill="#3f3d56"/>
      <rect id="Rectangle_76" data-name="Rectangle 76" width="12.478" height="0.58" transform="translate(159.527 96.594) rotate(9.864)" fill="#3f3d56"/>
      <rect id="Rectangle_77" data-name="Rectangle 77" width="12.478" height="0.58" transform="translate(159.129 98.881) rotate(9.864)" fill="#3f3d56"/>
      <rect id="Rectangle_78" data-name="Rectangle 78" width="12.478" height="0.58" transform="translate(158.731 101.169) rotate(9.864)" fill="#3f3d56"/>
      <rect id="Rectangle_79" data-name="Rectangle 79" width="12.478" height="0.58" transform="translate(158.334 103.456) rotate(9.864)" fill="#3f3d56"/>
      <path id="Tracé_996" data-name="Tracé 996" d="M749.443,566.144H707.115l-.008-.237-2.021-57.8h46.386Zm-41.853-.492h41.378l2-57.057H705.595Z" transform="translate(-567.548 -421.161)" fill="#3f3d56"/>
      <path id="Tracé_997" data-name="Tracé 997" d="M609.4,418.2H571.711L569.9,366.378h41.317Z" transform="translate(-429.827 -276.328)" fill="#3f3d56"/>
      <g id="Groupe_542" data-name="Groupe 542" transform="translate(146.444 97.653)" opacity="0.2">
        <rect id="Rectangle_80" data-name="Rectangle 80" width="3.219" height="39.841" fill="#fff"/>
        <rect id="Rectangle_81" data-name="Rectangle 81" width="3.219" height="39.841" transform="translate(12.677)" fill="#fff"/>
        <rect id="Rectangle_82" data-name="Rectangle 82" width="3.219" height="39.841" transform="translate(25.353)" fill="#fff"/>
      </g>
      <rect id="Rectangle_83" data-name="Rectangle 83" width="8.049" height="61.975" transform="matrix(0.534, -0.845, 0.845, 0.534, 157.147, 71.22)" fill="#3f3d56"/>
      <path id="Tracé_998" data-name="Tracé 998" d="M886.086,445.052a9.453,9.453,0,0,0-14.408,9.357l2.506,1.584a7.458,7.458,0,1,1,7.123,4.5l2.506,1.584a9.453,9.453,0,0,0,2.273-17.029Z" transform="translate(-693.119 -372.501)" fill="#3f3d56"/>
      <rect id="Rectangle_84" data-name="Rectangle 84" width="223.418" height="0.492" transform="translate(0 144.644)" fill="#3f3d56"/>
      <path id="Tracé_999" data-name="Tracé 999" d="M616.422,402.865s9.586,7.128,5.653,8.357-8.848-4.178-8.6-5.653S616.422,402.865,616.422,402.865Z" transform="translate(-498.446 -341.787)" fill="#ffb8b8"/>
      <path id="Tracé_1000" data-name="Tracé 1000" d="M443.737,211.5l9.831,9.094-3.933,4.178L443,219.857Z" transform="translate(-334.118 -159.517)" fill="#575a89"/>
      <path id="Tracé_1001" data-name="Tracé 1001" d="M618.809,409.683,598.54,396.671c7.323-6.462,12.483-13.721,14.266-22.223l20.269,13.012A52.723,52.723,0,0,0,618.809,409.683Z" transform="translate(-487.19 -320.355)" fill="#f7e045"/>
      <rect id="Rectangle_85" data-name="Rectangle 85" width="12.478" height="0.58" transform="translate(127.913 61.258) rotate(32.698)" fill="#3f3d56"/>
      <rect id="Rectangle_86" data-name="Rectangle 86" width="12.478" height="0.58" transform="translate(126.659 63.212) rotate(32.698)" fill="#3f3d56"/>
      <rect id="Rectangle_87" data-name="Rectangle 87" width="12.478" height="0.58" transform="translate(125.405 65.165) rotate(32.698)" fill="#3f3d56"/>
      <rect id="Rectangle_88" data-name="Rectangle 88" width="12.478" height="0.58" transform="translate(124.151 67.119) rotate(32.698)" fill="#3f3d56"/>
      <rect id="Rectangle_89" data-name="Rectangle 89" width="12.478" height="0.58" transform="translate(122.897 69.073) rotate(32.698)" fill="#3f3d56"/>
      <rect id="Rectangle_90" data-name="Rectangle 90" width="12.478" height="0.58" transform="translate(121.642 71.026) rotate(32.698)" fill="#3f3d56"/>
      <rect id="Rectangle_91" data-name="Rectangle 91" width="12.478" height="0.58" transform="translate(120.388 72.98) rotate(32.698)" fill="#3f3d56"/>
      <rect id="Rectangle_92" data-name="Rectangle 92" width="12.478" height="0.58" transform="translate(119.134 74.934) rotate(32.698)" fill="#3f3d56"/>
      <path id="Tracé_1002" data-name="Tracé 1002" d="M291.718,490.416l-3.731,7.848,10.436,2.5-.291-7.566Z" transform="translate(-217.204 -369.879)" fill="#ffb8b8"/>
      <path id="Tracé_1003" data-name="Tracé 1003" d="M455,529.729l1.229,8.6,10.077-3.687-4.424-6.145Z" transform="translate(-343.168 -398.603)" fill="#ffb8b8"/>
      <path id="Tracé_1004" data-name="Tracé 1004" d="M458.351,358.271s-1.544,9.888-1.124,14.591-1.237,24.544-1.237,24.544-7.411,8.062-9.093,17.268a76.855,76.855,0,0,1-5.277,16.85l8.732,2.842,17.3-32.762s12.41-27.161,11.177-29.748-3.167-13.013-3.167-13.013Z" transform="translate(-368.838 -308.154)" fill="#2f2e41"/>
      <path id="Tracé_1005" data-name="Tracé 1005" d="M423.7,659.172s-.011-4.431-1.574-2.518-6.667,5.606-3.662,8.189,20.558,16.584,21.5,12.492c.524-2.272-8.23-17.608-8.23-17.608s-2.923.183-3.126.933S423.7,659.172,423.7,659.172Z" transform="translate(-350.672 -532.837)" fill="#2f2e41"/>
      <path id="Tracé_1006" data-name="Tracé 1006" d="M403.636,40.5,397,48.119,403.636,55l6.145-9.34Z" transform="translate(-299.424 -30.546)" fill="#ffb8b8"/>
      <path id="Tracé_1007" data-name="Tracé 1007" d="M574.754,176.5a6.639,6.639,0,1,1-.12-1.256A6.639,6.639,0,0,1,574.754,176.5Z" transform="translate(-459.235 -166.053)" fill="#ffb8b8"/>
      <path id="Tracé_1008" data-name="Tracé 1008" d="M560.675,174.043a10.538,10.538,0,0,1,7.447-.193,8.036,8.036,0,0,1,3.7,2.124,4.057,4.057,0,0,1,.959,4l-2.009-1.519-.184,1.339c-1.326-2.068-3.844-2.967-6.179-3.729-.73-.238-1.7-.4-2.121.242-.177.271-.2.624-.386.887-.354.493-1.094.45-1.635.723a2.864,2.864,0,0,0-1.088,1.277c-.273.5-.152,1.2-.648,1.474-1.987,1.116-.816-3.182-.492-3.933A4.325,4.325,0,0,1,560.675,174.043Z" transform="translate(-456.164 -168.621)" fill="#2f2e41"/>
      <path id="Tracé_1009" data-name="Tracé 1009" d="M493,387.459s4.178,9.094,7.128,12.781,12.535,21.137,12.535,21.137-1.721,10.815,1.966,19.417a76.857,76.857,0,0,1,4.916,16.959l8.848-2.458-3.687-36.868s-4.67-29.494-7.128-30.969-9.831-9.094-9.831-9.094Z" transform="translate(-407.59 -323.309)" fill="#2f2e41"/>
      <path id="Tracé_1010" data-name="Tracé 1010" d="M508.369,226.448s-4.178-11.06-9.831-7.619-10.077,34.164-10.077,34.164-5.161,14.01,0,15.484,9.34,3.441,10.077.737.246-7.374,1.475-4.916.737,5.407,3.2,5.407,12.043-1.229,11.8-2.949S508.369,226.448,508.369,226.448Z" transform="translate(-402.436 -202.484)" fill="#575a89"/>
      <path id="Tracé_1011" data-name="Tracé 1011" d="M490.076,428.583s-3.2,9.586,1.229,9.586,3.785-9.678,3.785-9.678Z" transform="translate(-404.543 -361.115)" fill="#ffb8b8"/>
      <path id="Tracé_1012" data-name="Tracé 1012" d="M597.623,698.651s-2.458-3.687-2.7-1.229-2.458,8.357,1.475,8.848,26.3,2.458,24.824-1.475c-.819-2.183-16.59-10.125-16.59-10.125s-2.335,1.768-2.089,2.506S597.623,698.651,597.623,698.651Z" transform="translate(-483.824 -561.872)" fill="#2f2e41"/>
      <path id="Tracé_1013" data-name="Tracé 1013" d="M578.7,166.408s-1.165,1-2.677-.978a9.589,9.589,0,0,1-1.01-1.725,6.749,6.749,0,0,0-4.562-1.959q-.173-.007-.354-.007c-3.2,0-3.932-2.212-3.932-2.212L561,161.247s.737-6.882,7.865-6.882,7.374,5.9,7.374,5.9S581.892,162.476,578.7,166.408Z" transform="translate(-458.877 -154.365)" fill="#575a89"/>
      <path id="Tracé_1014" data-name="Tracé 1014" d="M605.012,186.214a9.589,9.589,0,0,1-1.01-1.725,6.749,6.749,0,0,0-4.562-1.959c1.8-.563,4.921-1.217,6.282.484C606.976,184.579,605.934,185.646,605.012,186.214Z" transform="translate(-487.869 -175.148)" opacity="0.2"/>
      <path id="Tracé_1015" data-name="Tracé 1015" d="M495.264,228.539s-6.636-1.229-8.357,4.67-5.407,23.35-5.407,23.35l2.212,17.942-.246,4.424h7.128v-4.67c0-.492.983-19.663.983-19.663l8.111-18.434S501.409,230.259,495.264,228.539Z" transform="translate(-398.916 -210.228)" fill="#575a89"/>
      <path id="Tracé_1016" data-name="Tracé 1016" d="M382.557,116l-8.111,15.976-1,22.889,2.716-23.135Z" transform="translate(-281.663 -87.489)" opacity="0.2"/>
      <path id="Tracé_1017" data-name="Tracé 1017" d="M450.525,215.686l1.842,9.44-.921-8.588Z" transform="translate(-339.793 -162.674)" opacity="0.2"/>
      <path id="Tracé_1018" data-name="Tracé 1018" d="M365.5,305.5l10.569,14.993-1.106,2.212Z" transform="translate(-275.666 -230.413)" opacity="0.2"/>
    </g>
    <g id="Ellipse_231" data-name="Ellipse 231" transform="translate(160.469 283.882) rotate(25)" fill="#fff" stroke="#000" stroke-width="1">
      <ellipse cx="0.5" cy="1" rx="0.5" ry="1" stroke="none"/>
      <ellipse cx="0.5" cy="1" ry="0.5" fill="none"/>
    </g>
    <path id="Tracé_1353" data-name="Tracé 1353" d="M-4213.712,257.33a2.416,2.416,0,0,1-1.247-.475" transform="matrix(0.545, 0.839, -0.839, 0.545, 2670.572, 3683.509)" fill="none" stroke="#707070" stroke-width="0.5"/>
  </g>
</svg>
