<svg xmlns="http://www.w3.org/2000/svg" xmlns:xlink="http://www.w3.org/1999/xlink" width="226.562" height="157.789" viewBox="0 0 226.562 157.789">
  <defs>
    <linearGradient id="linear-gradient" x1="0.5" y1="1" x2="0.5" gradientUnits="objectBoundingBox">
      <stop offset="0" stop-color="gray" stop-opacity="0.251"/>
      <stop offset="0.54" stop-color="gray" stop-opacity="0.122"/>
      <stop offset="1" stop-color="gray" stop-opacity="0.102"/>
    </linearGradient>
    <linearGradient id="linear-gradient-2" x1="0.495" y1="1.014" x2="0.495" y2="0" xlink:href="#linear-gradient"/>
    <linearGradient id="linear-gradient-3" x1="0.5" y1="1" x2="0.5" y2="0" xlink:href="#linear-gradient"/>
    <linearGradient id="linear-gradient-4" x1="0.5" y1="1" x2="0.5" y2="0" xlink:href="#linear-gradient"/>
  </defs>
  <g id="Groupe_691" data-name="Groupe 691" transform="translate(0.02 -0.02)">
    <circle id="Ellipse_215" data-name="Ellipse 215" cx="11.089" cy="11.089" r="11.089" transform="translate(11.587 4.676)" fill="#f7e045"/>
    <path id="Tracé_1174" data-name="Tracé 1174" d="M171.278,157.58c4.656,10.517-1.283,22.627-8.275,31.746-2.34,3.058-4.923,6.264-5.248,10.1-.391,4.692,2.786,9,6.555,11.824a27.6,27.6,0,0,0,24.445,4.134c7.07-2.24,13.014-7.3,20.146-9.339,11.927-3.416,24.569,2.247,34.783,9.3,7.23,4.988,14.973,11.066,23.689,10,6.133-.751,11.337-5.057,14.87-10.126,1.706-2.447,3.189-5.19,5.672-6.841a14.2,14.2,0,0,1,4.945-1.875c15.836-3.385,32.643,4.876,48.269.627,10.555-2.862,18.97-11.211,24.2-20.817s7.676-20.452,9.711-31.2c1.446-7.633,2.645-15.879-.677-22.9-3.516-7.433-11.655-11.939-19.834-12.783s-16.382,1.486-23.918,4.773c-9.415,4.117-18.644,9.88-28.92,9.9-7,.014-13.673-2.672-20.363-4.721-11.187-3.423-22.82-5.124-34.413-6.693-11.1-1.5-22.307-2.9-33.473-2.013-7.9.627-14.877,3.647-22.544,5.045-5,.911-10.018.239-14.923,1.765-6.04,1.889-12.251,6.266-12.585,13.16C163.08,147.211,168.809,152,171.278,157.58Z" transform="translate(-149.957 -119.24)" fill="#f7e045" opacity="0.1"/>
    <path id="Tracé_1175" data-name="Tracé 1175" d="M511.2,265.721c-1.019-2.655-3.645-8.895-5.374-7.657-2.185,1.565,2.185,8.477,2.185,8.477.124,1.269-2.333,3.91-3.65,5.226V271.6a.572.572,0,0,1-.057.143l-.11-.06a.715.715,0,0,1-.155.284,2.793,2.793,0,0,0-.012-.284c-.253,1.071-4.666,2.428-4.666,2.428h-.324c-1.226,0-4.418-.277-5.9-2.643a13.086,13.086,0,0,0-2.893-3.375,2.464,2.464,0,0,0-1.372-.52,17.648,17.648,0,0,1-8.055-2.772l-.122-.083-.026.076c-.155-.222-.305-.458-.446-.7h0l-.072-.131a5.992,5.992,0,0,0,3.3-5.329v-.124a4.082,4.082,0,0,0,.549-2.044v-.716l.933-.83a3.836,3.836,0,0,0,1.085-1.3,1.544,1.544,0,0,0,.114-.668,1.157,1.157,0,0,0-.439-1.035c-.716-.494-1.908,0-2.426-.687-.239-.31-.2-.732-.312-1.1a1.963,1.963,0,0,0-1.892-1.154,8.172,8.172,0,0,0-2.318.494,13.613,13.613,0,0,1-4.938.463,3.225,3.225,0,0,0-1.352.048,1.863,1.863,0,0,0-1.1,1.276,3,3,0,0,0-.1.654,4.112,4.112,0,0,0-1.035,2.722v1.834a4.11,4.11,0,0,0,.99,2.669,5.963,5.963,0,0,0,2.5,4.351v.146l.031.019a9.864,9.864,0,0,1-.262,1.686v-.122a17.24,17.24,0,0,1-6.917,1.82h-.394a2.664,2.664,0,0,0-1.908.716c-1.059,1-2.915,2.574-4.055,2.574-.239,0-6.259,1.176-7.256,1.372l-1.863-1.825-.057.107-.11-.107a4.527,4.527,0,0,0-.606.088,14.439,14.439,0,0,1-3.3-7.287s4.119-4.692,2.6-9.064c-1.293-3.726-4.854,4.26-5.866,6.667a1.923,1.923,0,0,0-.062,1.324l3.347,10.786a5.059,5.059,0,0,0-.265,2.624h-.038l2.438,3.127a12.872,12.872,0,0,0,4.7.768,16.445,16.445,0,0,0,6.14-1.178h.565l-.107.041h2.9l1.846,5.584c-.062.508-.954,7.6-1.67,9.186a3.986,3.986,0,0,0-.281,1.67,12.747,12.747,0,0,0,.532,3.232l1.617-.06-.062.126a84.186,84.186,0,0,0-5.009,12.485l-2.354,4.771,1.765,21.4h.072l.136.021h0c.191.029.477.072.854.119l-.138.239-3.89,6.44s-2.774,5.679,3.363,4.608c0,0,2.268-.658,3.194-4.532l4.036-3.786s.188-2.514-.954-3.518a27.28,27.28,0,0,1,.026-5.369c.336-.988-1.431-12.344-1.431-12.344s6.388-13.25,10.257-13.58a2.121,2.121,0,0,1,.837.11c3.18,1.035,7.032,8.723,8.165,11.116h0l.052.11v.021l.043.093v.026l.038.081v.021l.033.074v.017l.029.06v.024l.021.045v.019l.014.033v.041h0l.012.029.5,14.9h0l.05.026h.024l-.043.308-.219,1.539s2.774,5.844,2.6,6.583,1.849,3.7,4.706,2.881,1.157-5.462,1.157-5.462l-2.753-5.672-.122-.253a5.406,5.406,0,0,0,.773-.575s-.84-6.09,0-7.406,1.092-7.325,1.092-7.325-.589-4.115-1.6-5.925l-4.227-15.087c1.267,1.178,2.252,1.639,3.075,1.608h.136a2.054,2.054,0,0,0,1.035-.258,2.916,2.916,0,0,0,.477-.336.752.752,0,0,0,.079-.079h0c1.176-.988-1.345-4.857-2.774-7.156-1.376-2.218.52-8.246.663-8.694a2.274,2.274,0,0,1,.408-.239,2.517,2.517,0,0,1,.935-.2c1.369.048,3.053.835,5.138,1.231a24.24,24.24,0,0,0,4.387.341h.086c.584,0,1.114-.012,1.543-.029a2.608,2.608,0,0,0,1.121-.3h0a3.384,3.384,0,0,0,.8-.644l3.659-4.134-.1.045a2.056,2.056,0,0,0,0-1.455l3.867-6.679a2.54,2.54,0,0,0,.188-2.2Z" transform="translate(-367.641 -218.016)" fill="url(#linear-gradient)"/>
    <path id="Tracé_1176" data-name="Tracé 1176" d="M510.31,612.506l-3.9,3.733c-.892,3.817-3.084,4.463-3.084,4.463-5.923,1.054-3.246-4.532-3.246-4.532l3.757-6.357.463-.785a10.067,10.067,0,0,1,4.463-.324,1.526,1.526,0,0,1,.608.329C510.494,610,510.31,612.506,510.31,612.506Z" transform="translate(-410.195 -491.817)" fill="#444176"/>
    <path id="Tracé_1177" data-name="Tracé 1177" d="M623.053,600c-2.76.811-4.706-2.109-4.532-2.841S616,590.672,616,590.672l.21-1.517.2-1.4,4.532.324.427.9,2.657,5.594S625.813,599.185,623.053,600Z" transform="translate(-498.92 -475.98)" fill="#444176"/>
    <path id="Tracé_1178" data-name="Tracé 1178" d="M523.345,609.629c-.427.732-3.888.363-5.575.134l.463-.785a10.067,10.067,0,0,1,4.463-.324,1.526,1.526,0,0,1,.608.329C523.328,609.379,523.345,609.629,523.345,609.629Z" transform="translate(-424.121 -491.779)" opacity="0.1"/>
    <path id="Tracé_1179" data-name="Tracé 1179" d="M622.024,588.951a5.248,5.248,0,0,1-5.164.184l.2-1.4,4.532.324Z" transform="translate(-499.575 -475.965)" opacity="0.1"/>
    <path id="Tracé_1180" data-name="Tracé 1180" d="M538.87,458.563c-.811,1.3,0,7.3,0,7.3a5.178,5.178,0,0,1-5.842.649l-.477-14.686s-5.274-12.091-9.007-11.767-9.9,13.389-9.9,13.389,1.7,11.2,1.379,12.165,0,5.679,0,5.679c-.568.973-6.49,0-6.49,0l-1.7-21.1,2.261-4.709a83.47,83.47,0,0,1,4.83-12.308c.656-1.376,1.095-2.216,1.095-2.216l4.317-.9,14.014-2.905,5.035,18.329a23.637,23.637,0,0,1,1.541,5.842S539.681,457.265,538.87,458.563Z" transform="translate(-415.791 -353.696)" fill="#565387"/>
    <g id="Groupe_685" data-name="Groupe 685" transform="translate(91.03 73.455)" opacity="0.1">
      <path id="Tracé_1181" data-name="Tracé 1181" d="M590.263,507.683,589.786,493s-5.274-12.091-9.007-11.767a2.034,2.034,0,0,0-.489.11c3.64,1.209,8.2,11.657,8.2,11.657l.477,14.686a5.725,5.725,0,0,0,3.227.589A5.742,5.742,0,0,1,590.263,507.683Z" transform="translate(-562.758 -468.318)"/>
      <path id="Tracé_1182" data-name="Tracé 1182" d="M509.791,471.272l-1.7-21.1,2.271-4.716a83.469,83.469,0,0,1,4.83-12.308c.656-1.376,1.095-2.216,1.095-2.216l4.317-.9,12.792-2.66-.069-.255L519.3,430.035l-4.317.9s-.439.84-1.095,2.216a83.366,83.366,0,0,0-4.83,12.308l-2.271,4.706,1.7,21.1a30.476,30.476,0,0,0,5.152.415A38.324,38.324,0,0,1,509.791,471.272Z" transform="translate(-506.79 -427.12)"/>
    </g>
    <path id="Tracé_1183" data-name="Tracé 1183" d="M465.107,338.21a4.214,4.214,0,0,0-3.976,5.112l1.3.162,1.946-2.109.973-1.784v-.406Z" transform="translate(-380.945 -285.963)" fill="#ced2df"/>
    <path id="Tracé_1184" data-name="Tracé 1184" d="M465.107,338.21a4.214,4.214,0,0,0-3.976,5.112l1.3.162,1.946-2.109.973-1.784v-.406Z" transform="translate(-380.945 -285.963)" opacity="0.1"/>
    <path id="Tracé_1185" data-name="Tracé 1185" d="M692.956,345.69s3.817,2.028,2.841,4.382l-1.216.477-1.622-.892-.239-2.109.162-1.46Z" transform="translate(-557.34 -291.659)" fill="#ced2df"/>
    <path id="Tracé_1186" data-name="Tracé 1186" d="M692.956,345.69s3.817,2.028,2.841,4.382l-1.216.477-1.622-.892-.239-2.109.162-1.46Z" transform="translate(-557.34 -291.659)" opacity="0.1"/>
    <rect id="Rectangle_106" data-name="Rectangle 106" width="13.308" height="10.061" rx="5.031" transform="translate(102.835 33.095)" fill="#88455e"/>
    <path id="Tracé_1187" data-name="Tracé 1187" d="M455.445,284.624l-2.841,4.532-.239-.806-3.859-12.575a1.935,1.935,0,0,1,.06-1.3c.976-2.371,4.415-10.257,5.663-6.572,1.46,4.294-2.517,8.926-2.517,8.926a14.293,14.293,0,0,0,3.394,7.428C455.317,284.5,455.445,284.624,455.445,284.624Z" transform="translate(-371.314 -231.688)" fill="#ec8c9c"/>
    <path id="Tracé_1188" data-name="Tracé 1188" d="M691.16,303.2s4.463-4.22,4.294-5.923c0,0-4.22-6.815-2.109-8.349,1.67-1.221,4.205,4.933,5.188,7.549a2.552,2.552,0,0,1-.169,2.147l-5.334,9.443Z" transform="translate(-556.152 -248.313)" fill="#ec8c9c"/>
    <path id="Tracé_1189" data-name="Tracé 1189" d="M563.89,299.91s.811,5.193-1.541,7.142,6.736,1.937,6.736,1.937l3.246-3s-3.733-3.49-2.6-6.085Z" transform="translate(-457.771 -256.791)" fill="#ec8c9c"/>
    <path id="Tracé_1190" data-name="Tracé 1190" d="M547.984,323.734a5.689,5.689,0,0,0,6.977-.324l5.679,11.767-.324,14.362s-11.767,6.085-16.635,2.354-.811-5.679-.811-5.679l-1.135-11.034,1.216-7.142s2.19-3.409,2.354-3.409S547.984,323.734,547.984,323.734Z" transform="translate(-442.027 -274.693)" opacity="0.1"/>
    <path id="Tracé_1191" data-name="Tracé 1191" d="M547.992,323.054a5.684,5.684,0,0,0,6.979-.324l5.679,11.767-.324,14.362s-11.767,6.085-16.635,2.354-.811-5.679-.811-5.679L541.745,334.5l1.216-7.142s2.19-3.409,2.354-3.409S547.992,323.054,547.992,323.054Z" transform="translate(-442.035 -274.176)" fill="#ebf1f6"/>
    <path id="Tracé_1192" data-name="Tracé 1192" d="M487.512,319a15.057,15.057,0,0,1-6.9,1.791,2.543,2.543,0,0,0-1.834.7c-1.023.983-2.815,2.538-3.924,2.538-.239,0-7.142,1.379-7.142,1.379l-1.825-1.825s-2.719,5.314-4.017,5.071l2.354,3.084a14.182,14.182,0,0,0,10.3-.405h3.409l1.784,5.517s-.892,7.466-1.622,9.088.239,4.787.239,4.787l6.409-.239s.324-3.165.811-3.578-1.7-14.362-1.7-14.362-1.46-7.872,3.9-10.71Z" transform="translate(-381.555 -271.335)" opacity="0.1"/>
    <path id="Tracé_1193" data-name="Tracé 1193" d="M541.97,439.38a21.19,21.19,0,0,0-.5,2.927l-4.907.186c.656-1.376,1.095-2.216,1.095-2.216Z" transform="translate(-438.429 -363.001)" opacity="0.1"/>
    <path id="Tracé_1194" data-name="Tracé 1194" d="M468.039,339.9l-2.841,4.532-.239-.806a20.974,20.974,0,0,0,2.75-4.1A4.809,4.809,0,0,0,468.039,339.9Z" transform="translate(-383.908 -286.968)" opacity="0.1"/>
    <path id="Tracé_1195" data-name="Tracé 1195" d="M486.972,319a16.125,16.125,0,0,1-7.063,1.791,2.543,2.543,0,0,0-1.834.7c-1.023.983-2.815,2.538-3.924,2.538-.239,0-7.142,1.379-7.142,1.379l-1.832-1.827s-2.719,5.314-4.017,5.071l2.354,3.084a14.182,14.182,0,0,0,10.3-.406h3.409l1.784,5.515s-.892,7.466-1.622,9.088.239,4.787.239,4.787l6.409-.239s.324-3.165.811-3.578-1.7-14.362-1.7-14.362-1.46-7.872,3.9-10.71Z" transform="translate(-381.015 -271.335)" fill="#ced2df"/>
    <path id="Tracé_1196" data-name="Tracé 1196" d="M595.059,316.94a15.79,15.79,0,0,0,7.731,2.815,2.35,2.35,0,0,1,1.324.513,12.814,12.814,0,0,1,2.793,3.339c1.784,2.922,6.166,2.6,6.166,2.6s4.26-1.338,4.5-2.385c0,0,.122,5.725,2.8,4.341l-3.523,4.06a2.485,2.485,0,0,1-1.777.856,26.121,26.121,0,0,1-5.565-.308c-2.922-.568-5.031-1.946-6.572-.73,0,0-2.028,6.328-.649,8.6s3.817,6.085,2.679,7.061-2.516.892-4.787-1.46-2.516-6.328-2.516-6.328l.568-10.223s-2.19-7.709-4.294-9.25Z" transform="translate(-482.122 -269.767)" opacity="0.1"/>
    <path id="Tracé_1197" data-name="Tracé 1197" d="M621.7,328.309l-3.533,4.076a2.483,2.483,0,0,1-.852.635h0a2.474,2.474,0,0,1-.921.217,25.812,25.812,0,0,1-5.565-.308c-2.734-.532-4.756-1.772-6.269-.935a2.213,2.213,0,0,0-.305.2s-2.027,6.328-.649,8.6,3.817,6.085,2.679,7.061a2.622,2.622,0,0,1-.634.413c-1.021.46-2.288.062-4.153-1.872-2.271-2.354-2.517-6.328-2.517-6.328l.568-10.223s-2.19-7.709-4.294-9.25l.928-3.328A16.846,16.846,0,0,0,603.964,320a2.349,2.349,0,0,1,1.324.513,12.823,12.823,0,0,1,2.793,3.339c1.784,2.922,6.166,2.6,6.166,2.6a23.675,23.675,0,0,0,3.07-1.221h0a4.679,4.679,0,0,0,1.431-.954.715.715,0,0,0,.155-.286S619.027,329.688,621.7,328.309Z" transform="translate(-483.127 -270.018)" opacity="0.1"/>
    <path id="Tracé_1198" data-name="Tracé 1198" d="M621,328.147l-3.53,4.081a2.482,2.482,0,0,1-.687.553h0a2.476,2.476,0,0,1-1.083.3,25.81,25.81,0,0,1-5.565-.308c-2.636-.513-4.613-1.686-6.1-1.016a2.207,2.207,0,0,0-.477.284s-2.028,6.328-.649,8.6,3.817,6.085,2.679,7.061a2.813,2.813,0,0,1-.477.332c-1.05.58-2.347.239-4.315-1.791-2.271-2.354-2.516-6.328-2.516-6.328l.568-10.223s-2.19-7.709-4.294-9.25l.973-3.49.117.081a16.846,16.846,0,0,0,7.776,2.734,2.35,2.35,0,0,1,1.324.513,12.824,12.824,0,0,1,2.793,3.339c1.784,2.922,6.166,2.6,6.166,2.6a23.675,23.675,0,0,0,3.07-1.221h0c.737-.377,1.338-.79,1.431-1.166v.205C618.272,325.017,618.63,329.366,621,328.147Z" transform="translate(-482.587 -269.774)" fill="#ced2df"/>
    <path id="Tracé_1199" data-name="Tracé 1199" d="M575.813,300.45H569.85a14.593,14.593,0,0,1,.112,2.862,6.13,6.13,0,0,0,6.3.453A3.806,3.806,0,0,1,575.813,300.45Z" transform="translate(-463.779 -257.21)" opacity="0.1"/>
    <circle id="Ellipse_216" data-name="Ellipse 216" cx="5.923" cy="5.923" r="5.923" transform="translate(103.767 35.247)" fill="#ec8c9c"/>
    <path id="Tracé_1200" data-name="Tracé 1200" d="M565.052,260.843a6.322,6.322,0,0,1,1.973-.181c.592.119,1.095.527,1.686.651,1.14.239,2.2-.6,3.06-1.383l1.861-1.694a3.8,3.8,0,0,0,1.05-1.283,1.288,1.288,0,0,0-.315-1.517c-.68-.477-1.851,0-2.342-.677a3.535,3.535,0,0,1-.3-1.081,1.9,1.9,0,0,0-1.827-1.138,8.082,8.082,0,0,0-2.237.477,12.88,12.88,0,0,1-4.771.456,3.048,3.048,0,0,0-1.3.045,1.825,1.825,0,0,0-1.059,1.257,7.323,7.323,0,0,0,.89,4.551A3.831,3.831,0,0,0,565.052,260.843Z" transform="translate(-456.592 -220.727)" opacity="0.1"/>
    <path id="Tracé_1201" data-name="Tracé 1201" d="M565.052,260.163a6.322,6.322,0,0,1,1.973-.181c.592.119,1.095.527,1.686.651,1.14.239,2.2-.6,3.06-1.383l1.861-1.694a3.8,3.8,0,0,0,1.05-1.283,1.288,1.288,0,0,0-.315-1.517c-.68-.477-1.851,0-2.342-.677a3.535,3.535,0,0,1-.3-1.081,1.9,1.9,0,0,0-1.827-1.138,8.082,8.082,0,0,0-2.237.477,12.88,12.88,0,0,1-4.771.456,3.049,3.049,0,0,0-1.3.045,1.825,1.825,0,0,0-1.059,1.257,7.323,7.323,0,0,0,.89,4.551A3.856,3.856,0,0,0,565.052,260.163Z" transform="translate(-456.592 -220.21)" fill="#88455e"/>
    <path id="Tracé_1202" data-name="Tracé 1202" d="M536.55,394a3.344,3.344,0,0,1,1.946.973,3.5,3.5,0,0,0,1.784,1.054" transform="translate(-438.422 -328.445)" opacity="0.1"/>
    <path id="Tracé_1203" data-name="Tracé 1203" d="M487.413,349.09s1.059,2.364.405,2.6-.405,1.946-.405,1.946" transform="translate(-400.97 -294.248)" opacity="0.1"/>
    <g id="Groupe_686" data-name="Groupe 686" transform="translate(86.734 47.703)" opacity="0.1">
      <path id="Tracé_1204" data-name="Tracé 1204" d="M488.854,331.211s6.9-1.379,7.134-1.379c1.112,0,2.9-1.555,3.924-2.538a2.5,2.5,0,0,1,1.112-.618h-.088a2.543,2.543,0,0,0-1.834.7c-1.023.983-2.815,2.538-3.924,2.538-.193,0-4.606.875-6.4,1.231Z" transform="translate(-488.78 -324.882)"/>
      <path id="Tracé_1205" data-name="Tracé 1205" d="M552.536,319.463v-.3a17.219,17.219,0,0,1-5.286,1.691A16.336,16.336,0,0,0,552.536,319.463Z" transform="translate(-533.303 -319.16)"/>
      <path id="Tracé_1206" data-name="Tracé 1206" d="M520.822,389.913s-.973-3.165-.239-4.787,1.622-9.088,1.622-9.088l-1.779-5.517h-3.418l-.208.081h2.8l1.777,5.52s-.892,7.466-1.622,9.088S520,390,520,390l6.409-.239v-.05Z" transform="translate(-510.116 -358.269)"/>
    </g>
    <g id="Groupe_687" data-name="Groupe 687" transform="translate(115.77 58.377)" opacity="0.1">
      <path id="Tracé_1207" data-name="Tracé 1207" d="M617.819,417.03a2.813,2.813,0,0,1-.477.332c-1.05.58-2.347.239-4.315-1.791a10.913,10.913,0,0,1-2.469-5.87l-.048.84s.239,3.976,2.516,6.328c1.968,2.037,3.266,2.371,4.315,1.791a2.811,2.811,0,0,0,.477-.332c.341-.293.36-.844.181-1.531A.751.751,0,0,1,617.819,417.03Z" transform="translate(-610.51 -398.778)"/>
      <path id="Tracé_1208" data-name="Tracé 1208" d="M645.266,364.027l-2.3,2.655a2.482,2.482,0,0,1-.687.553h0a2.476,2.476,0,0,1-1.083.3,25.812,25.812,0,0,1-5.565-.308c-2.636-.513-4.613-1.686-6.1-1.016a2.206,2.206,0,0,0-.477.284,23.172,23.172,0,0,0-1.109,6.872,26.838,26.838,0,0,1,1.109-5.575,2.206,2.206,0,0,1,.477-.284c1.493-.67,3.468.5,6.1,1.016a26.114,26.114,0,0,0,5.565.308,2.476,2.476,0,0,0,1.083-.3h0a2.481,2.481,0,0,0,.687-.546l3.533-4.077A1.391,1.391,0,0,1,645.266,364.027Z" transform="translate(-623.769 -363.91)"/>
    </g>
    <path id="Tracé_1209" data-name="Tracé 1209" d="M265.74,486.89a.184.184,0,0,0,.217.029A.739.739,0,0,1,265.74,486.89Z" transform="translate(-232.208 -399.178)" fill="url(#linear-gradient-2)"/>
    <path id="Tracé_1210" data-name="Tracé 1210" d="M182.94,282.965c-.429-.124-1.042-.327-1.779-.584a9.331,9.331,0,0,0,1.648-3.32l-.062.024c.021-.074.043-.146.062-.222-1.414.575-2.979-.4-3.976-1.648s-1.67-2.8-2.762-3.95A12.642,12.642,0,0,0,174.606,272a2.025,2.025,0,0,0-1.061-.52c-.637-.019-1.135.606-1.748.79a2.385,2.385,0,0,1-1.219-.045,41.948,41.948,0,0,0-4.716-1.209,5.527,5.527,0,0,0-2.559.289c-.811.308-1.181.921-1.837,1.412a6.8,6.8,0,0,1-2.946.608,21.1,21.1,0,0,1-3.044.126,7.124,7.124,0,0,0-1.751.064,6.752,6.752,0,0,0-3.087,2.147,1.591,1.591,0,0,0-.51.8,1.01,1.01,0,0,0,0,.265,1.72,1.72,0,0,0,.122.7,9.3,9.3,0,0,0,1.171,2.33,6.73,6.73,0,0,1,1.011,1.655,3.213,3.213,0,0,1,.155.954,6.939,6.939,0,0,1-.107,1.026,12.881,12.881,0,0,1-.785,2.731,4.962,4.962,0,0,0-.458,1.431,2.283,2.283,0,0,0,0,.305c-.06,1.574,1.529,2.707,1.837,4.272a2.552,2.552,0,0,1,.045.394,2.665,2.665,0,0,1-1.41,2.309c.072.029.146.052.219.076a1.99,1.99,0,0,1-.219.119,4.454,4.454,0,0,0,.458.148,10.639,10.639,0,0,0-2.316,2.862c-2.76,5.138-21.451,15.2-21.451,15.2l.277.157-.224.146c-1.617,1.076-5.412,4.212-1.982,8.179a43.309,43.309,0,0,1,4.556-6.028c.083-.081.167-.155.239-.224a.549.549,0,0,1,.072.434l12.289-6.906s4.368-3.058,5.586-3.747a10.054,10.054,0,0,1,2.769-1.193l-.143.06a5.61,5.61,0,0,1,1.41-.2c2.175.033,4.532,1.627,5.307,7.936,1.04,8.449.558,9.973.224,10.181a.614.614,0,0,1-.122-.021.209.209,0,0,0,.033.024.638.638,0,0,1-.134-.024.191.191,0,0,0,.181.043.169.169,0,0,0,.136-.017h0a1.41,1.41,0,0,0,.165,0,1.751,1.751,0,0,1-.017.239c-.017,0-.1.045,0,.05h0c-.026.477-.024.995,0,1.536-1.081.06-2.161.124-3.1.181l.083-.446.038-.2c.83-.067,1.617-.31,1.71-.983.2-1.479-1.827-2.268-3.554-2.366s-12.084.592-12.084.592-1.553,2.011,3.373,2.624l.456.239a54.745,54.745,0,0,1,5.8,4.122l.174.138-.563.458c3.046.689,5.992,12.33,7.616,17.651s5.179,5.128,8.124,4.339c2.76-.739,3.1-8.754,3.146-9.761v-.1l4.909,6.063.372.46q.215.112.425.21A4.724,4.724,0,0,0,182.6,341.6a104.485,104.485,0,0,0-4.234-12.091c-1.023-2.039-2.345-5.427-3.146-7.547a2.547,2.547,0,0,0,.3-.146s-.019-.1-.05-.27l.05-.026a73.135,73.135,0,0,1-1.245-10.5v-.379c.887-.2,1.45-.281,1.45-.281l.017-.191-.1.021.494-5.651s1.813-3.857.425-5.462a3.373,3.373,0,0,1-.813-1.67c-.239-1.477,0-3.941,3.232-5.987A27.84,27.84,0,0,0,185.9,285.7S185.986,283.862,182.94,282.965Zm-9.882,3.921v-2.612c.923-.045,1.865.062,2.793,0a7.07,7.07,0,0,0,1.348-.227l.224.155a24.567,24.567,0,0,1-4.365,2.683Zm-14.109,40.942c.365.253.732.515,1.092.78.224,1.288.422,2.2.437,2.261A17.858,17.858,0,0,0,158.949,327.828Z" transform="translate(-125.1 -234.766)" fill="url(#linear-gradient-3)"/>
    <path id="Tracé_1211" data-name="Tracé 1211" d="M263.854,500.32l-.215,1.166-.165.892-.3,1.632-2.915,2.039s-.262-.224-.7-.58a51.086,51.086,0,0,0-5.548-4.055,6.2,6.2,0,0,0-1.524-.7Z" transform="translate(-222.119 -409.405)" fill="#ffbdc6"/>
    <path id="Tracé_1212" data-name="Tracé 1212" d="M263.846,500.32l-.215,1.166a9.063,9.063,0,0,1-1.923-.1l-6.8.1c-.322-.019-.623-.045-.9-.074a6.2,6.2,0,0,0-1.524-.7Z" transform="translate(-222.111 -409.405)" opacity="0.1"/>
    <path id="Tracé_1213" data-name="Tracé 1213" d="M254.177,493.713s3.4.582,3.595-.875-1.748-2.225-3.4-2.335-11.564.587-11.564.587-1.748,2.33,4.566,2.719Z" transform="translate(-214.58 -401.92)" fill="#7679b4"/>
    <path id="Tracé_1214" data-name="Tracé 1214" d="M263.854,500.32l-.215,1.166-.165.892-.3,1.632-2.915,2.039s-.262-.224-.7-.58a51.086,51.086,0,0,0-5.548-4.055,6.2,6.2,0,0,0-1.524-.7Z" transform="translate(-222.119 -409.405)" opacity="0.1"/>
    <path id="Tracé_1215" data-name="Tracé 1215" d="M263.846,500.32l-.215,1.166a9.063,9.063,0,0,1-1.923-.1l-6.8.1c-.322-.019-.623-.045-.9-.074a6.2,6.2,0,0,0-1.524-.7Z" transform="translate(-222.111 -409.405)" opacity="0.1"/>
    <path id="Tracé_1216" data-name="Tracé 1216" d="M254.177,493.713s3.4.582,3.595-.875-1.748-2.225-3.4-2.335-11.564.587-11.564.587-1.748,2.33,4.566,2.719Z" transform="translate(-214.58 -401.92)" opacity="0.1"/>
    <rect id="Rectangle_107" data-name="Rectangle 107" width="17.778" height="21.081" transform="translate(29.25 43.893)" fill="#a66477"/>
    <rect id="Rectangle_108" data-name="Rectangle 108" width="17.778" height="21.081" transform="translate(29.25 43.893)" opacity="0.1"/>
    <path id="Tracé_1217" data-name="Tracé 1217" d="M138.814,448.911a2.848,2.848,0,0,0-1.083.766,42.6,42.6,0,0,0-4.358,5.937c-3.282-3.907.351-7,1.908-8.058.377-.258.63-.4.63-.4Z" transform="translate(-130.403 -368.925)" fill="#ffbdc6"/>
    <path id="Tracé_1218" data-name="Tracé 1218" d="M269.234,331.09s.875,6.121,3.886,7.578-3.886,4.177-3.886,4.177l-9.424-3.5s5.343-1.748,4.275-6.9Z" transform="translate(-227.693 -280.542)" fill="#ffbdc6"/>
    <path id="Tracé_1219" data-name="Tracé 1219" d="M220.724,485.45l-.215,1.166-.165.892-.3,1.632-2.915,2.039s-.262-.224-.7-.58a51.1,51.1,0,0,0-5.548-4.055,6.2,6.2,0,0,0-1.524-.7Z" transform="translate(-189.277 -398.082)" fill="#ffbdc6"/>
    <path id="Tracé_1220" data-name="Tracé 1220" d="M220.716,485.45l-.215,1.166a9.063,9.063,0,0,1-1.923-.1l-6.8.1c-.322-.019-.623-.045-.9-.074a6.2,6.2,0,0,0-1.524-.7Z" transform="translate(-189.269 -398.082)" opacity="0.1"/>
    <path id="Tracé_1221" data-name="Tracé 1221" d="M211,478.856s3.4.582,3.595-.875-1.748-2.235-3.4-2.33-11.562.582-11.562.582-1.748,2.33,4.566,2.719Z" transform="translate(-181.699 -390.613)" fill="#7679b4"/>
    <path id="Tracé_1222" data-name="Tracé 1222" d="M242.882,493.869l-.3,1.632-2.915,2.039s-.262-.224-.7-.58l3.855-3.161Z" transform="translate(-211.824 -404.44)" opacity="0.1"/>
    <path id="Tracé_1223" data-name="Tracé 1223" d="M260.912,502.312q-.2-.1-.405-.208l-.355-.453-4.694-5.963v.1c-.031.99-.37,8.885-3.008,9.613-2.817.778-6.219.971-7.771-4.274s-4.372-16.709-7.287-17.389l4.322-3.547a25.759,25.759,0,0,1,4.031,6.555c-.043-.205-2.02-9.439-.389-11.07h14.183s2.185,6.235,3.692,9.327a105.482,105.482,0,0,1,4.055,11.91A4.562,4.562,0,0,1,260.912,502.312Z" transform="translate(-210.621 -390.642)" fill="#7679b4"/>
    <path id="Tracé_1224" data-name="Tracé 1224" d="M283.81,439.6c-2.187,1.3-11.8.768-14.939.558l-.852-.062c-.093,0,.014-.052.014-.052l.088-.883,2.33-5.925L282.937,426a10.8,10.8,0,0,0-.317,3.266A76.115,76.115,0,0,0,283.81,439.6Z" transform="translate(-233.915 -352.812)" opacity="0.1"/>
    <path id="Tracé_1225" data-name="Tracé 1225" d="M283.482,438.4c-2.187,1.3-11.8.768-14.939.558l-.852-.062h-.141l.155-.041.768-.2,1.651-6.607,12.485-7.237a10.8,10.8,0,0,0-.317,3.266A76.168,76.168,0,0,0,283.482,438.4Z" transform="translate(-233.587 -351.906)" fill="#f2f1f2"/>
    <path id="Tracé_1226" data-name="Tracé 1226" d="M282.748,428c-2.538.584-8.124,2.3-10.271,6.44-1.431,2.762-2.624,3.948-3.475,4.444l-.852-.062.014-.052.768-.2,1.651-6.607,12.485-7.237A10.8,10.8,0,0,0,282.748,428Z" transform="translate(-234.044 -351.838)" opacity="0.1"/>
    <path id="Tracé_1227" data-name="Tracé 1227" d="M146.2,447.17l2.915,1.748a2.847,2.847,0,0,0-1.083.766c-.239-.716-1.77-1.7-2.462-2.118C145.947,447.308,146.2,447.17,146.2,447.17Z" transform="translate(-140.703 -368.933)" opacity="0.1"/>
    <path id="Tracé_1228" data-name="Tracé 1228" d="M265.345,484.256a.174.174,0,0,1-.205-.026A.7.7,0,0,0,265.345,484.256Z" transform="translate(-231.752 -397.153)" opacity="0.1"/>
    <path id="Tracé_1229" data-name="Tracé 1229" d="M180.715,313.821a5.779,5.779,0,0,1-4.47-1.651s-7.771,2.235-10.4,7.287-20.5,14.961-20.5,14.961,3.1,1.748,2.817,2.624l11.755-6.8s4.177-3.013,5.343-3.692,7.578-4.857,8.938,6.51,0,10.018,0,10.018,1.944.68,4.771-4.771,11.562-6.7,11.562-6.7l.477-5.725s1.734-3.8.406-5.381a3.363,3.363,0,0,1-.778-1.643c-.222-1.455,0-3.881,3.1-5.9a26.268,26.268,0,0,0,6.607-5.634s.1-1.846-2.817-2.719-14.768-5.634-14.768-5.634l-.389,1.651,9.327,6.607s-4.663,3.788-8.349,3.692C183.339,310.9,184.018,313.723,180.715,313.821Z" transform="translate(-140.535 -256.083)" fill="#565388"/>
    <path id="Tracé_1230" data-name="Tracé 1230" d="M282.633,334.645a19.09,19.09,0,0,1-.537-2.385l-5.15,1.369a5.677,5.677,0,0,1-.117,2.97,5.539,5.539,0,0,0,5.8-1.956Z" transform="translate(-240.653 -281.432)" opacity="0.1"/>
    <circle id="Ellipse_217" data-name="Ellipse 217" cx="5.539" cy="5.539" r="5.539" transform="translate(32.165 43.989)" fill="#ffbdc6"/>
    <path id="Tracé_1231" data-name="Tracé 1231" d="M247.45,273.844a39.544,39.544,0,0,1,4.511,1.193,2.228,2.228,0,0,0,1.166.045c.587-.181,1.064-.8,1.67-.778a1.755,1.755,0,0,1,1.016.513,12.189,12.189,0,0,1,1.4,1.243c1.042,1.133,1.691,2.66,2.643,3.89s2.452,2.19,3.8,1.624c-.918,3.578-3.933,6.314-7.192,6.536a17.219,17.219,0,0,0-3.89.2,3.407,3.407,0,0,1-.983.239c-.716,0-1.307-.666-1.76-1.312a55.58,55.58,0,0,0-3.1-4.635,2.535,2.535,0,0,0-1.414-.978,2.619,2.619,0,0,0-1.565.439,7.43,7.43,0,0,0-2.29,1.589,3.175,3.175,0,0,0-.773,2.793,6.822,6.822,0,0,1,.477,1.562c0,.883-.768,1.529-.923,2.385a9.2,9.2,0,0,0-.038,1.088,4.437,4.437,0,0,1-1.643,2.884,2.075,2.075,0,0,0-.751,1.042c-.062.3,0,.625-.041.933a1.693,1.693,0,0,1-1.555,1.252,4.508,4.508,0,0,1-2.333-.277,2.682,2.682,0,0,0,1.3-2.862c-.3-1.577-1.884-2.707-1.751-4.315a4.992,4.992,0,0,1,.439-1.419,12.988,12.988,0,0,0,.749-2.691,4.559,4.559,0,0,0-.045-2.147,6.777,6.777,0,0,0-.968-1.632,9.26,9.26,0,0,1-1.121-2.3,1.61,1.61,0,0,1-.107-.759,1.572,1.572,0,0,1,.477-.787,6.485,6.485,0,0,1,2.953-2.118,6.621,6.621,0,0,1,1.67-.064,19.616,19.616,0,0,0,2.912-.124,6.329,6.329,0,0,0,2.819-.6c.627-.477.983-1.085,1.758-1.391A5.145,5.145,0,0,1,247.45,273.844Z" transform="translate(-206.803 -236.913)" opacity="0.1"/>
    <path id="Tracé_1232" data-name="Tracé 1232" d="M308.48,513.76s3.206,6.314,2.235,8.258" transform="translate(-264.754 -419.639)" opacity="0.1"/>
    <path id="Tracé_1233" data-name="Tracé 1233" d="M317.74,561.351l-4.694-5.963v.1s-.272-1.927.623-1.279c1.958,1.417,5.093,3.74,5.159,4.141A11.449,11.449,0,0,1,317.74,561.351Z" transform="translate(-268.201 -450.342)" opacity="0.1"/>
    <g id="Groupe_688" data-name="Groupe 688" transform="translate(4.912 42.87)" opacity="0.1">
      <path id="Tracé_1234" data-name="Tracé 1234" d="M302.175,348.749a2.382,2.382,0,0,1-.885,2.462,2.2,2.2,0,0,0,2-2.54,6.217,6.217,0,0,1-1.114.079Z" transform="translate(-264.191 -336.798)"/>
      <path id="Tracé_1235" data-name="Tracé 1235" d="M146.831,376.679s17.876-9.909,20.5-14.961c1.882-3.626,6.417-5.8,8.826-6.739-1.758.589-7.674,2.848-9.9,7.127-2.624,5.052-20.5,14.961-20.5,14.961Z" transform="translate(-145.76 -341.603)"/>
      <path id="Tracé_1236" data-name="Tracé 1236" d="M305.386,310.08a21.289,21.289,0,0,0,5.949-3.308l-9.327-6.607.212-.906-.892-.358-.389,1.651,9.327,6.607A22.506,22.506,0,0,1,305.386,310.08Z" transform="translate(-263.925 -298.9)"/>
      <path id="Tracé_1237" data-name="Tracé 1237" d="M319.83,436.082a23.11,23.11,0,0,1,3.657-.923l.017-.188A24.75,24.75,0,0,0,319.83,436.082Z" transform="translate(-278.309 -402.513)"/>
      <path id="Tracé_1238" data-name="Tracé 1238" d="M247.273,425.319h-.086a.174.174,0,0,1-.205-.026.716.716,0,0,0,.205.026c.32-.186.8-1.636-.205-10.033-1.073-8.964-5.286-8.26-7.592-7.23,2.357-.649,5.6-.088,6.524,7.619,1,8.4.525,9.849.205,10.033A2.147,2.147,0,0,0,247.273,425.319Z" transform="translate(-217.056 -381.572)"/>
      <path id="Tracé_1239" data-name="Tracé 1239" d="M266.945,483.856a.716.716,0,0,1-.205-.026A.174.174,0,0,0,266.945,483.856Z" transform="translate(-237.882 -439.718)"/>
    </g>
    <path id="Tracé_1240" data-name="Tracé 1240" d="M247.45,273.054a39.544,39.544,0,0,1,4.511,1.193,2.228,2.228,0,0,0,1.166.045c.587-.181,1.064-.8,1.67-.778a1.755,1.755,0,0,1,1.016.513,12.193,12.193,0,0,1,1.4,1.243c1.042,1.133,1.691,2.66,2.643,3.89s2.452,2.19,3.8,1.624c-.918,3.578-3.933,6.314-7.192,6.536a17.219,17.219,0,0,0-3.89.2,3.4,3.4,0,0,1-.983.239c-.716,0-1.307-.665-1.76-1.312a55.576,55.576,0,0,0-3.1-4.635,2.535,2.535,0,0,0-1.414-.978,2.619,2.619,0,0,0-1.565.439,7.428,7.428,0,0,0-2.29,1.589,3.175,3.175,0,0,0-.773,2.793,6.823,6.823,0,0,1,.477,1.562c0,.883-.768,1.529-.923,2.385a9.208,9.208,0,0,0-.038,1.088,4.437,4.437,0,0,1-1.643,2.884,2.074,2.074,0,0,0-.751,1.042c-.062.3,0,.625-.041.933a1.693,1.693,0,0,1-1.555,1.252,4.508,4.508,0,0,1-2.333-.277,2.682,2.682,0,0,0,1.3-2.862c-.3-1.577-1.884-2.707-1.751-4.315a4.993,4.993,0,0,1,.439-1.419,12.988,12.988,0,0,0,.749-2.691,4.558,4.558,0,0,0-.045-2.147,6.778,6.778,0,0,0-.968-1.632,9.26,9.26,0,0,1-1.121-2.3,1.61,1.61,0,0,1-.107-.759,1.572,1.572,0,0,1,.477-.787,6.485,6.485,0,0,1,2.953-2.118,6.621,6.621,0,0,1,1.67-.064,19.62,19.62,0,0,0,2.912-.124,6.33,6.33,0,0,0,2.819-.6c.627-.477.983-1.085,1.758-1.391A5.145,5.145,0,0,1,247.45,273.054Z" transform="translate(-206.803 -236.312)" fill="#a66477"/>
    <path id="Tracé_1241" data-name="Tracé 1241" d="M797.211,201.223h0v-.088a.2.2,0,0,0-.014-.091h-.038v-.2c-.1-2.211-3.153-6.917-4.379-5.543-1.073,1.207.546,4.26,1.372,5.634l.074.124-.041-.026s-3.413,10.181-3.817,10.577-3.213,8.4-6.917,9.3c-.732.174-1.341.332-1.851.477l.041-.136a14.758,14.758,0,0,0,.651-2.385,3.088,3.088,0,0,0-.439-2.342c-.215-.21-.477-.239-.654-.572a2.642,2.642,0,0,1-.181-.918l-.315-3.859.219-.067a3.72,3.72,0,0,0,2.762-2.786,1.424,1.424,0,0,1-.141.045,2.407,2.407,0,0,0,.041-.239c-1.114.439-2.147-.716-3.22-1.233-1.768-.866-3.788-.05-5.613.148-2.068.227-4.031-.632-6.145-.477-1.15.088-2.428.868-2.366,2a8.009,8.009,0,0,0,.658,1.746c.458,1.443-.561,2.891-1.453,4.122a6.136,6.136,0,0,0-1.25,2.743c-2.054-2.147-4.274-4.628-4.532-5.56l-5.942-10.181s-.141.15-.367.372c-.036-.11-.079-.239-.126-.367-.759-2.125-2.905-7.275-5.627-6.331s1.128,6.223,2.8,8.327l.239.291a.754.754,0,0,1-.425-.019l6.626,11.366a8.791,8.791,0,0,0,2.309,2.767s8.232,10.379,8.332,12.454,3.7,7.612,3.7,7.612,1.2,9-.9,10.577h.348q-.15.147-.308.322c-1.562,1.732-3.559,5.443-.83,11.755,4.014,9.3,4.618,12.948,4.618,12.948s-7.633.4-9.136.692c-1.331.262-6.5.446-7.688.477-.422-.491-1.67-1.579-3.354,0-2.109,1.977-3.614,8.587-3.614,8.587s-.8,5.338,1.908,3.952c0,0,3.213-4.449,4.115-4.647.448-.1.923-.759,1.286-1.4l.019.012h0c.021,0,.11-.048.253-.1h0a7.734,7.734,0,0,1,3.957-.584,72.885,72.885,0,0,0,7.771.205c-.806,1.932-2.252,6.917-2.252,6.917s-.6,4.649,1.4,4.458c1.431-.141,3.626-3.8,4.771-5.885.83-.608,3.208-2.788,4.966-2.624l11.846-4.546s2.81-1.581,1.3-6.82c-1.193-4.165-4.587-12.69-5.927-16.013h0l-.041-.086c-.324-.8-.52-1.281-.52-1.281h0a19.6,19.6,0,0,1-1.076-4.7c-.012-.126-.021-.255-.031-.382a2.109,2.109,0,0,0,.465-.27s-1.1-11.168,0-12.356h0l.019-.021h0v-.014h0l.019-.024h0l.043-.055h0l.052-.067h0c.06-.079.131-.177.212-.3h0a8.188,8.188,0,0,0,1.472-5.534h0q-.022-.162-.052-.327h0a6.815,6.815,0,0,0-.687-1.937,5.37,5.37,0,0,1-.088-.766V227.4a2.291,2.291,0,0,1,.036-.343v-.043a.426.426,0,0,1,.021-.131v-.055a.622.622,0,0,1,.029-.129v-.045c.014-.057.029-.115.048-.172v-.029q.022-.072.048-.141l.021-.055.048-.115.024-.057c.019-.043.041-.086.062-.129l.017-.036q.043-.079.091-.155l.026-.041.079-.112.038-.05.083-.1.038-.043c.043-.045.086-.091.134-.134,1.3-1.193,7.127-9.983,7.127-9.983a7.87,7.87,0,0,0,1.4-3.261C794.978,212.017,797.461,203.74,797.211,201.223ZM781.58,275.109c-.143-1.355-.286-3.034-.417-4.771l2.271,3.54S783.218,274.956,781.58,275.109Z" transform="translate(-598.41 -176.913)" fill="url(#linear-gradient-4)"/>
    <path id="Tracé_1242" data-name="Tracé 1242" d="M771.445,524.463a2.054,2.054,0,0,0-3.4-.193c-2.042,1.954-3.5,8.451-3.5,8.451s-.778,5.248,1.846,3.886c0,0,3.1-4.372,3.984-4.565s1.846-2.624,1.846-2.624Z" transform="translate(-611.952 -427.017)" fill="#493545"/>
    <path id="Tracé_1243" data-name="Tracé 1243" d="M838.823,548.243s-1.846-.875-2.428-.193-2.526,7.48-2.526,7.48-.582,4.47,1.36,4.274,5.343-7.194,5.343-7.194Z" transform="translate(-664.758 -445.551)" fill="#493545"/>
    <path id="Tracé_1244" data-name="Tracé 1244" d="M838.823,548.243s-1.846-.875-2.428-.193-2.526,7.48-2.526,7.48-.582,4.47,1.36,4.274,5.343-7.194,5.343-7.194Z" transform="translate(-664.758 -445.551)" opacity="0.05"/>
    <path id="Tracé_1245" data-name="Tracé 1245" d="M858.162,456.516l4.177,6.51s-.291,1.457-2.817,1.166l-8.647,5.441s-.751,6.624,1.651,6.023c.389-.1,3.1-2.915,5.052-2.719l11.466-4.47s2.719-1.555,1.262-6.7-6.276-17.084-6.276-17.084l-7.616,4.26Z" transform="translate(-677.685 -367.037)" fill="#3e3d77"/>
    <path id="Tracé_1246" data-name="Tracé 1246" d="M858.162,456.516l4.177,6.51s-.291,1.457-2.817,1.166l-8.647,5.441s-.751,6.624,1.651,6.023c.389-.1,3.1-2.915,5.052-2.719l11.466-4.47s2.719-1.555,1.262-6.7-6.276-17.084-6.276-17.084l-7.616,4.26Z" transform="translate(-677.685 -367.037)" opacity="0.05"/>
    <path id="Tracé_1247" data-name="Tracé 1247" d="M813.219,443.762c.582,3.693-2.719,3.984-2.719,3.984s-14.865.291-16.614-.1a7.886,7.886,0,0,0-4.081.68c-3.013-1.846-.582-6.412-.582-6.412s6.219-.193,7.676-.477,8.84-.687,8.84-.687-.582-3.595-4.47-12.726c-2.641-6.2-.716-9.851.8-11.552a6.4,6.4,0,0,1,1.333-1.174l11.95.582a15.494,15.494,0,0,0,.067,1.806,19.231,19.231,0,0,0,1.586,5.963c-.68,0-5.052,4.081-5.052,4.081S812.634,440.072,813.219,443.762Z" transform="translate(-630.118 -344.665)" fill="#3e3d77"/>
    <path id="Tracé_1248" data-name="Tracé 1248" d="M790.1,442.327s6.219-.193,7.676-.477,8.84-.68,8.84-.68-.582-3.595-4.47-12.726c-2.641-6.2-.716-9.851.8-11.552a6.4,6.4,0,0,1,1.333-1.174l11.073.539v-.346l-11.95-.582a6.4,6.4,0,0,0-1.333,1.174c-1.512,1.7-3.444,5.35-.8,11.552,3.9,9.124,4.475,12.719,4.475,12.719s-7.394.389-8.84.68-7.676.477-7.676.477-2.428,4.568.582,6.421c0,0,.091-.043.239-.1C788.045,446.189,790.1,442.327,790.1,442.327Z" transform="translate(-630.121 -344.688)" opacity="0.1"/>
    <rect id="Rectangle_109" data-name="Rectangle 109" width="6.023" height="15.252" transform="translate(171.732 34.977)" fill="#493545"/>
    <rect id="Rectangle_110" data-name="Rectangle 110" width="6.023" height="15.252" transform="translate(171.732 34.977)" opacity="0.1"/>
    <path id="Tracé_1249" data-name="Tracé 1249" d="M876.081,248.2c.208.057.441.064.582.351a2.146,2.146,0,0,1,.141.716l.379,4.713a2.625,2.625,0,0,0,.177.9c.16.32.425.358.632.563a3.118,3.118,0,0,1,.425,2.3,15.123,15.123,0,0,1-.63,2.338,22.014,22.014,0,0,1-.995,3.256c-.456.926-1.283,1.431-1.818.654s-.463-2.347-.563-3.633c-.167-2.147-1-4-1.061-6.159a24.693,24.693,0,0,1,.716-5.038c.21-1.138.222-2.519.527-3.542C874.847,246.836,875.334,247.993,876.081,248.2Z" transform="translate(-694.881 -215.459)" fill="#493545"/>
    <path id="Tracé_1250" data-name="Tracé 1250" d="M876.081,248.2c.208.057.441.064.582.351a2.146,2.146,0,0,1,.141.716l.379,4.713a2.625,2.625,0,0,0,.177.9c.16.32.425.358.632.563a3.118,3.118,0,0,1,.425,2.3,15.123,15.123,0,0,1-.63,2.338,22.014,22.014,0,0,1-.995,3.256c-.456.926-1.283,1.431-1.818.654s-.463-2.347-.563-3.633c-.167-2.147-1-4-1.061-6.159a24.693,24.693,0,0,1,.716-5.038c.21-1.138.222-2.519.527-3.542C874.847,246.836,875.334,247.993,876.081,248.2Z" transform="translate(-694.881 -215.459)" opacity="0.1"/>
    <path id="Tracé_1251" data-name="Tracé 1251" d="M756.7,205.35l-2.33,1.944s-.277-.324-.689-.849c-1.62-2.068-5.343-7.256-2.712-8.184s4.711,4.131,5.446,6.221C756.6,205.012,756.7,205.35,756.7,205.35Z" transform="translate(-601.001 -179.311)" fill="#c77485"/>
    <path id="Tracé_1252" data-name="Tracé 1252" d="M940.162,204.857c-.971,1.457-2.331,0-2.331,0s-.174-.26-.42-.68c-.8-1.352-2.366-4.351-1.329-5.539,1.193-1.357,4.148,3.275,4.239,5.448A1.293,1.293,0,0,1,940.162,204.857Z" transform="translate(-742.391 -179.498)" fill="#c77485"/>
    <path id="Tracé_1253" data-name="Tracé 1253" d="M854.08,286.216s1.944,6.219,1.36,8.062,4.179,3.991,4.179,3.991h5.441s1.944-3.983,1.457-5.15-4.663-2.039-4.663-2.039-2.428,0-2.33-6.51Z" transform="translate(-680.211 -245.118)" fill="#c77485"/>
    <path id="Tracé_1254" data-name="Tracé 1254" d="M768.28,225.568l-2.33,1.944s-.277-.324-.689-.849A7.573,7.573,0,0,0,768,224.7C768.18,225.23,768.28,225.568,768.28,225.568Z" transform="translate(-612.577 -199.529)" opacity="0.1"/>
    <path id="Tracé_1255" data-name="Tracé 1255" d="M945.5,223.008c-.971,1.457-2.331,0-2.331,0s-.174-.26-.42-.68l.031-.1c.63.451,2.588.067,2.879,0a1.293,1.293,0,0,1-.16.778Z" transform="translate(-747.73 -197.648)" opacity="0.1"/>
    <path id="Tracé_1256" data-name="Tracé 1256" d="M859.358,417.67c-3.005,1.372-12.771-1.071-13.358-1.217a6.4,6.4,0,0,1,1.333-1.174l11.95.582A15.511,15.511,0,0,0,859.358,417.67Z" transform="translate(-674.058 -344.65)" opacity="0.1"/>
    <path id="Tracé_1257" data-name="Tracé 1257" d="M787.132,244.736s-2.33.778-5.634-2.235c0,0-7.395-7.287-7.872-9.036L767.9,223.447s-2.428,2.624-3.4,2.235l6.412,11.173a8.526,8.526,0,0,0,2.235,2.719s7.967,10.2,8.062,12.241,3.59,7.5,3.59,7.5,1.166,8.84-.875,10.4c0,0,11.366,2.915,13.794.971,0,0-1.069-10.972,0-12.144,0,0,3.3-3.886,1.069-8.16,0,0-.477-2.33.778-3.5s6.9-9.813,6.9-9.813a7.8,7.8,0,0,0,1.36-3.206s2.526-8.549,2.147-10.784c0,0-2.235.477-2.915,0,0,0-3.3,10.018-3.692,10.4s-3.1,8.258-6.7,9.133a18.639,18.639,0,0,0-4.177,1.262s6.994,4.372,3.595,6.314S787.132,244.736,787.132,244.736Z" transform="translate(-611.998 -198.295)" fill="#ffaac4"/>
    <path id="Tracé_1258" data-name="Tracé 1258" d="M860.072,288.93a18.553,18.553,0,0,1-.141-2.76l-5.441,1.651a7.34,7.34,0,0,1,.341,1.116,6.484,6.484,0,0,0,2.185.923A4.955,4.955,0,0,0,860.072,288.93Z" transform="translate(-680.523 -246.336)" opacity="0.1"/>
    <circle id="Ellipse_218" data-name="Ellipse 218" cx="5.052" cy="5.052" r="5.052" transform="translate(171.343 33.131)" fill="#c77485"/>
    <path id="Tracé_1259" data-name="Tracé 1259" d="M825.811,246.4c-1.112.086-2.352.854-2.29,1.968a7.482,7.482,0,0,0,.637,1.717c.441,1.419-.542,2.843-1.4,4.055s-1.67,2.817-.93,4.1a10.113,10.113,0,0,0,.682.89c.914,1.233.9,2.9,1.307,4.379A7.683,7.683,0,0,0,832.839,269a4.8,4.8,0,0,1-1.014-3.249,5.588,5.588,0,0,0,0-2.521c-.425-1.009-1.67-1.407-2.311-2.29a3.66,3.66,0,0,1-.289-3.158c.31-1.052.847-2.028,1.1-3.1a9.342,9.342,0,0,1,.239-.928,4.147,4.147,0,0,1,3.1-2.33c1.312-.317,2.691-.336,3.972-.754a3.622,3.622,0,0,0,2.674-2.738c-1.078.432-2.078-.694-3.118-1.212-1.713-.849-3.666-.05-5.431.146C829.754,247.087,827.846,246.254,825.811,246.4Z" transform="translate(-655.427 -216.002)" opacity="0.1"/>
    <path id="Tracé_1260" data-name="Tracé 1260" d="M825.4,245.592c-1.112.086-2.352.854-2.29,1.968a7.482,7.482,0,0,0,.637,1.717c.441,1.419-.541,2.843-1.4,4.055s-1.67,2.817-.93,4.1a10.1,10.1,0,0,0,.682.89c.914,1.233.9,2.9,1.307,4.379a7.683,7.683,0,0,0,9.026,5.486,4.8,4.8,0,0,1-1.014-3.249,5.588,5.588,0,0,0,0-2.521c-.425-1.009-1.67-1.407-2.311-2.29a3.66,3.66,0,0,1-.289-3.158c.31-1.052.847-2.028,1.1-3.1a9.327,9.327,0,0,1,.239-.928,4.147,4.147,0,0,1,3.1-2.33c1.312-.317,2.691-.336,3.972-.754a3.622,3.622,0,0,0,2.674-2.738c-1.078.432-2.078-.694-3.118-1.212-1.713-.849-3.666-.05-5.431.145C829.349,246.274,827.448,245.432,825.4,245.592Z" transform="translate(-655.115 -215.386)" fill="#493545"/>
    <path id="Tracé_1261" data-name="Tracé 1261" d="M885.65,326.3a16.283,16.283,0,0,1,2.421,2.6" transform="translate(-704.25 -276.894)" opacity="0.1"/>
    <path id="Tracé_1262" data-name="Tracé 1262" d="M879.5,371.51a21.755,21.755,0,0,0-3.693.291,17.359,17.359,0,0,1-3.983,0" transform="translate(-693.719 -311.32)" opacity="0.1"/>
    <g id="Groupe_689" data-name="Groupe 689" transform="translate(152.499 24.777)" opacity="0.1">
      <path id="Tracé_1263" data-name="Tracé 1263" d="M885.375,316.524a2.429,2.429,0,0,1-.7.267,2.671,2.671,0,0,0,1.865-.267c3.4-1.944-3.595-6.314-3.595-6.314H881.78S888.776,314.582,885.375,316.524Z" transform="translate(-853.803 -289.42)"/>
      <path id="Tracé_1264" data-name="Tracé 1264" d="M951.253,223.227a1.019,1.019,0,0,0-.024-.177,11.414,11.414,0,0,1-1.209.184A5.357,5.357,0,0,0,951.253,223.227Z" transform="translate(-905.765 -223.05)"/>
      <path id="Tracé_1265" data-name="Tracé 1265" d="M785.085,278.059c2.039-1.555.875-10.4.875-10.4s-3.5-5.441-3.595-7.48-8.062-12.241-8.062-12.241a8.63,8.63,0,0,1-2.235-2.719s-6.607-10.784-7.578-11.173l6.412,11.173a8.526,8.526,0,0,0,2.235,2.719s7.967,10.2,8.062,12.241,3.592,7.488,3.592,7.488,1.166,8.84-.875,10.4c0,0,6.987,1.791,11.175,1.629A58.463,58.463,0,0,1,785.085,278.059Z" transform="translate(-764.49 -231.426)"/>
      <path id="Tracé_1266" data-name="Tracé 1266" d="M858.79,313.954l-.057-.074a1.535,1.535,0,0,1-.2.045C858.621,313.937,858.707,313.947,858.79,313.954Z" transform="translate(-836.099 -292.214)"/>
    </g>
    <g id="Groupe_690" data-name="Groupe 690" transform="translate(185.627 24.766)" opacity="0.1">
      <path id="Tracé_1267" data-name="Tracé 1267" d="M918.824,223l-.06.012c-.1,2.984-2.173,9.994-2.173,9.994a7.8,7.8,0,0,1-1.36,3.206s-5.634,8.647-6.9,9.813-.778,3.5-.778,3.5l.012.024a3.527,3.527,0,0,1,.861-2.745c1.262-1.166,6.9-9.813,6.9-9.813a7.8,7.8,0,0,0,1.36-3.206C916.687,233.8,919.213,225.247,918.824,223Z" transform="translate(-906.488 -223)"/>
      <path id="Tracé_1268" data-name="Tracé 1268" d="M903.37,350.959c.146.825.048-.048.1.778a8.228,8.228,0,0,0,1.734-6.257A8.506,8.506,0,0,1,903.37,350.959Z" transform="translate(-903.37 -316.265)"/>
    </g>
    <ellipse id="Ellipse_219" data-name="Ellipse 219" cx="102.013" cy="9.799" rx="102.013" ry="9.799" transform="translate(10.031 138.211)" fill="#80bb9a" opacity="0.1"/>
    <path id="Tracé_1269" data-name="Tracé 1269" d="M424.745,577.81s-3.473-11.8.651-20.476a18.629,18.629,0,0,0,1.508-11.688,31.33,31.33,0,0,0-1.655-5.486" transform="translate(-352.245 -439.742)" fill="none" stroke="#535461" stroke-miterlimit="10" stroke-width="2"/>
    <path id="Tracé_1270" data-name="Tracé 1270" d="M425.225,508.186c0,1.445-2.624,5.636-2.624,5.636s-2.624-4.191-2.624-5.636a2.624,2.624,0,1,1,5.233,0Z" transform="translate(-349.65 -413.249)" fill="#562e8a"/>
    <path id="Tracé_1271" data-name="Tracé 1271" d="M443.32,537.329c-.785,1.214-5.26,3.308-5.26,3.308s.081-4.94.866-6.154a2.624,2.624,0,1,1,4.394,2.846Z" transform="translate(-363.425 -434.387)" fill="#562e8a"/>
    <path id="Tracé_1272" data-name="Tracé 1272" d="M439.522,591.99c-1.29.651-6.2.2-6.2.2s2.564-4.224,3.855-4.876a2.624,2.624,0,1,1,2.357,4.673Z" transform="translate(-359.815 -475.364)" fill="#562e8a"/>
    <path id="Tracé_1273" data-name="Tracé 1273" d="M429.51,636.711c-1.162.859-6.09,1.248-6.09,1.248s1.813-4.6,2.977-5.458a2.624,2.624,0,0,1,3.1,4.208Z" transform="translate(-352.277 -509.766)" fill="#562e8a"/>
    <path id="Tracé_1274" data-name="Tracé 1274" d="M412.016,551c1.038,1.007,5.868,2.051,5.868,2.051s-1.193-4.8-2.221-5.806A2.624,2.624,0,1,0,412.016,551Z" transform="translate(-342.881 -444.472)" fill="#562e8a"/>
    <path id="Tracé_1275" data-name="Tracé 1275" d="M399.464,601.021c1.29.651,6.2.2,6.2.2s-2.555-4.224-3.845-4.864a2.624,2.624,0,0,0-2.357,4.673Z" transform="translate(-333.065 -482.382)" fill="#562e8a"/>
    <path id="Tracé_1276" data-name="Tracé 1276" d="M395.142,651.868c1.162.859,6.09,1.247,6.09,1.247s-1.813-4.6-2.977-5.458a2.624,2.624,0,1,0-3.1,4.208Z" transform="translate(-329.792 -521.096)" fill="#562e8a"/>
    <path id="Tracé_1284" data-name="Tracé 1284" d="M719.385,578.52s-3.473-11.8.651-20.476a18.63,18.63,0,0,0,1.508-11.688,31.325,31.325,0,0,0-1.655-5.486" transform="translate(-576.604 -440.282)" fill="none" stroke="#535461" stroke-miterlimit="10" stroke-width="2"/>
    <path id="Tracé_1285" data-name="Tracé 1285" d="M719.868,510.122c0,1.445-2.624,5.637-2.624,5.637s-2.624-4.191-2.624-5.637a2.624,2.624,0,0,1,5.233,0Z" transform="translate(-574.016 -415.018)" fill="#562e8a"/>
    <path id="Tracé_1286" data-name="Tracé 1286" d="M737.97,538.029c-.785,1.214-5.26,3.308-5.26,3.308s.081-4.94.866-6.154a2.624,2.624,0,1,1,4.394,2.846Z" transform="translate(-587.791 -434.92)" fill="#562e8a"/>
    <path id="Tracé_1287" data-name="Tracé 1287" d="M734.2,592.675c-1.29.651-6.2.2-6.2.2s2.564-4.224,3.855-4.876a2.624,2.624,0,1,1,2.347,4.675Z" transform="translate(-584.205 -475.881)" fill="#562e8a"/>
    <path id="Tracé_1288" data-name="Tracé 1288" d="M724.15,637.411c-1.162.859-6.09,1.248-6.09,1.248s1.813-4.6,2.977-5.458a2.624,2.624,0,0,1,3.1,4.208Z" transform="translate(-576.636 -510.299)" fill="#562e8a"/>
    <path id="Tracé_1289" data-name="Tracé 1289" d="M706.676,551.7c1.038,1.007,5.868,2.051,5.868,2.051s-1.193-4.8-2.221-5.806a2.624,2.624,0,1,0-3.647,3.754Z" transform="translate(-567.255 -445.005)" fill="#562e8a"/>
    <path id="Tracé_1290" data-name="Tracé 1290" d="M694.074,601.683c1.29.651,6.2.2,6.2.2s-2.564-4.224-3.855-4.876a2.624,2.624,0,0,0-2.357,4.673Z" transform="translate(-557.394 -482.877)" fill="#562e8a"/>
    <path id="Tracé_1291" data-name="Tracé 1291" d="M690.991,653.451c1.162.859,6.09,1.247,6.09,1.247s-1.813-4.6-2.977-5.458a2.624,2.624,0,0,0-3.1,4.208Z" transform="translate(-555.358 -522.513)" fill="#562e8a"/>
    <path id="Tracé_1299" data-name="Tracé 1299" d="M746.023,127.853h-1.5a1.05,1.05,0,1,0,0-2.1H732.379a1.05,1.05,0,0,0,0,2.1h1.5a1.05,1.05,0,0,0,0,2.1h-2.1a1.05,1.05,0,1,0,0,2.1h12.136a1.05,1.05,0,1,0,0-2.1h2.106a1.05,1.05,0,0,0,0-2.1Z" transform="translate(-586.246 -124.185)" fill="#dee3f3" opacity="0.5"/>
    <path id="Tracé_1300" data-name="Tracé 1300" d="M463.512,155.092h-1.14a.8.8,0,1,0,0-1.6h-9.236a.8.8,0,0,0,0,1.6h1.14a.8.8,0,1,0,0,1.6h-1.6a.8.8,0,1,0,0,1.6h9.236a.8.8,0,1,0,0-1.6h1.6a.8.8,0,0,0,0-1.6Z" transform="translate(-373.915 -145.309)" fill="#dee3f3" opacity="0.5"/>
    <path id="Tracé_1301" data-name="Tracé 1301" d="M173.665,634s4.174,8.194.773,12.676.31,16.7.31,16.7" transform="translate(-161.592 -511.198)" fill="none" stroke="#80bb9a" stroke-miterlimit="10" stroke-width="1"/>
    <path id="Tracé_1302" data-name="Tracé 1302" d="M173.6,614.122a4.828,4.828,0,0,1-1.159,2.862,4.113,4.113,0,0,1,0-5.725A4.828,4.828,0,0,1,173.6,614.122Z" transform="translate(-160.28 -493.882)" fill="#80bb9a"/>
    <path id="Tracé_1303" data-name="Tracé 1303" d="M178.123,634s-4.174,8.194-.773,12.676-.31,16.7-.31,16.7" transform="translate(-163.886 -511.198)" fill="none" stroke="#80bb9a" stroke-miterlimit="10" stroke-width="1"/>
    <path id="Tracé_1304" data-name="Tracé 1304" d="M179.67,614.122a4.828,4.828,0,0,0,1.159,2.862,4.113,4.113,0,0,0,0-5.725A4.828,4.828,0,0,0,179.67,614.122Z" transform="translate(-166.669 -493.882)" fill="#80bb9a"/>
    <path id="Tracé_1305" data-name="Tracé 1305" d="M179.67,614.122a4.828,4.828,0,0,0,1.159,2.862,4.113,4.113,0,0,0,0-5.725A4.828,4.828,0,0,0,179.67,614.122Z" transform="translate(-166.669 -493.882)" opacity="0.1"/>
    <path id="Tracé_1306" data-name="Tracé 1306" d="M189.885,634s4.174,8.194.773,12.676.31,16.7.31,16.7" transform="translate(-173.943 -511.198)" fill="#80bb9a" stroke="#80bb9a" stroke-miterlimit="10" stroke-width="1"/>
    <path id="Tracé_1307" data-name="Tracé 1307" d="M189.769,614.122a4.828,4.828,0,0,1-1.159,2.862,4.113,4.113,0,0,1,0-5.725A4.828,4.828,0,0,1,189.769,614.122Z" transform="translate(-172.593 -493.882)" fill="#80bb9a"/>
    <path id="Tracé_1308" data-name="Tracé 1308" d="M185.439,641.642a4.82,4.82,0,0,1-2.819,1.257,4.107,4.107,0,0,1,3.967-4.119A4.87,4.87,0,0,1,185.439,641.642Z" transform="translate(-168.915 -514.838)" fill="#80bb9a"/>
    <path id="Tracé_1309" data-name="Tracé 1309" d="M185.9,665.342a4.82,4.82,0,0,1-2.819,1.257,4.107,4.107,0,0,1,3.967-4.119A4.816,4.816,0,0,1,185.9,665.342Z" transform="translate(-169.266 -532.884)" fill="#80bb9a"/>
    <path id="Tracé_1310" data-name="Tracé 1310" d="M161.22,683.04a4.817,4.817,0,0,1,1,2.92,4.108,4.108,0,0,1-3.75-4.32A4.818,4.818,0,0,1,161.22,683.04Z" transform="translate(-150.525 -547.474)" fill="#80bb9a"/>
    <path id="Tracé_1311" data-name="Tracé 1311" d="M164.345,634.923a4.818,4.818,0,0,1,1.744,2.548,4.106,4.106,0,0,1-4.768-3.161A4.77,4.77,0,0,1,164.345,634.923Z" transform="translate(-152.696 -511.406)" fill="#80bb9a"/>
    <path id="Tracé_1312" data-name="Tracé 1312" d="M164.345,634.923a4.818,4.818,0,0,1,1.744,2.548,4.106,4.106,0,0,1-4.768-3.161A4.77,4.77,0,0,1,164.345,634.923Z" transform="translate(-152.696 -511.406)" opacity="0.1"/>
    <path id="Tracé_1313" data-name="Tracé 1313" d="M194.323,634s-4.174,8.194-.773,12.676-.31,16.7-.31,16.7" transform="translate(-176.222 -511.198)" fill="none" stroke="#80bb9a" stroke-miterlimit="10" stroke-width="1"/>
    <path id="Tracé_1314" data-name="Tracé 1314" d="M195.87,614.122a4.828,4.828,0,0,0,1.159,2.862,4.113,4.113,0,0,0,0-5.725A4.828,4.828,0,0,0,195.87,614.122Z" transform="translate(-179.005 -493.882)" fill="#80bb9a"/>
    <path id="Tracé_1315" data-name="Tracé 1315" d="M195.87,614.122a4.828,4.828,0,0,0,1.159,2.862,4.113,4.113,0,0,0,0-5.725A4.828,4.828,0,0,0,195.87,614.122Z" transform="translate(-179.005 -493.882)" opacity="0.1"/>
    <path id="Tracé_1316" data-name="Tracé 1316" d="M193.463,647.384a4.885,4.885,0,0,0-1.193,2.862,4.813,4.813,0,0,0,2.834-1.224,4.885,4.885,0,0,0,1.193-2.862A4.813,4.813,0,0,0,193.463,647.384Z" transform="translate(-176.263 -520.457)" fill="#80bb9a"/>
    <path id="Tracé_1317" data-name="Tracé 1317" d="M193.463,647.384a4.885,4.885,0,0,0-1.193,2.862,4.813,4.813,0,0,0,2.834-1.224,4.885,4.885,0,0,0,1.193-2.862A4.813,4.813,0,0,0,193.463,647.384Z" transform="translate(-176.263 -520.457)" opacity="0.1"/>
    <path id="Tracé_1318" data-name="Tracé 1318" d="M202.573,680.194a4.885,4.885,0,0,0-1.193,2.862,4.813,4.813,0,0,0,2.834-1.224,4.885,4.885,0,0,0,1.193-2.862A4.8,4.8,0,0,0,202.573,680.194Z" transform="translate(-183.2 -545.441)" fill="#80bb9a"/>
    <path id="Tracé_1319" data-name="Tracé 1319" d="M193,663.945s2.512-3.96,6.04-4.055" transform="translate(-176.819 -530.912)" fill="none" stroke="#80bb9a" stroke-miterlimit="10" stroke-width="1"/>
    <path id="Tracé_1320" data-name="Tracé 1320" d="M165.49,653.915s-2.512-3.96-6.04-4.055" transform="translate(-151.272 -523.275)" fill="none" stroke="#80bb9a" stroke-miterlimit="10" stroke-width="1"/>
    <path id="Tracé_1321" data-name="Tracé 1321" d="M183.4,677.615s2.512-3.96,6.04-4.055" transform="translate(-169.509 -541.322)" fill="none" stroke="#80bb9a" stroke-miterlimit="10" stroke-width="1"/>
    <circle id="Ellipse_220" data-name="Ellipse 220" cx="0.651" cy="0.651" r="0.651" transform="translate(21.448 128.305)" fill="#80bb9a"/>
    <circle id="Ellipse_221" data-name="Ellipse 221" cx="0.651" cy="0.651" r="0.651" transform="translate(7.589 125.967)" fill="#80bb9a"/>
    <path id="Tracé_1322" data-name="Tracé 1322" d="M171.87,683.055s-2.512-3.96-6.04-4.055" transform="translate(-156.13 -545.464)" fill="none" stroke="#80bb9a" stroke-miterlimit="10" stroke-width="1"/>
    <circle id="Ellipse_222" data-name="Ellipse 222" cx="0.651" cy="0.651" r="0.651" transform="translate(9.111 132.923)" fill="#80bb9a"/>
    <circle id="Ellipse_223" data-name="Ellipse 223" cx="0.651" cy="0.651" r="0.651" transform="translate(19.327 131.621)" fill="#80bb9a"/>
    <path id="Tracé_1323" data-name="Tracé 1323" d="M173.492,718.162s-6.054-1.212-7.671-2.827-8.878-4.439-9.687-2.421-10.9,8.881-4.036,10.092,16.146,1.615,18.164.806S173.492,718.162,173.492,718.162Z" transform="translate(-143.863 -570.756)" fill="#a8a8a8"/>
    <path id="Tracé_1324" data-name="Tracé 1324" d="M152.107,741.106c6.863,1.212,16.146,1.615,18.164.806,1.536-.615,2.6-3.578,3.027-4.942l.2.043s-1.212,4.845-3.23,5.651-11.3.4-18.164-.806c-1.98-.351-2.548-1.171-2.333-2.209C149.941,740.317,150.632,740.846,152.107,741.106Z" transform="translate(-143.871 -589.606)" opacity="0.2"/>
    <path id="Tracé_1325" data-name="Tracé 1325" d="M1002.375,641.78s2,2.624-.923,6.56-5.331,7.278-4.356,9.739c0,0,4.408-7.33,8-7.433S1006.323,646.186,1002.375,641.78Z" transform="translate(-788.945 -517.122)" fill="#80bb9a"/>
    <path id="Tracé_1326" data-name="Tracé 1326" d="M1002.736,641.78a3.237,3.237,0,0,1,.408.821c3.5,4.112,5.365,7.95,2,8.048-3.134.091-6.894,5.694-7.8,7.111a3.036,3.036,0,0,0,.107.322s4.408-7.33,8-7.433S1006.684,646.186,1002.736,641.78Z" transform="translate(-789.306 -517.122)" opacity="0.1"/>
    <path id="Tracé_1327" data-name="Tracé 1327" d="M1033.987,653.873c0,.921-.1,1.67-.239,1.67s-.239-.747-.239-1.67.129-.477.255-.477S1033.987,652.955,1033.987,653.873Z" transform="translate(-816.841 -525.885)" fill="#ffd037"/>
    <path id="Tracé_1328" data-name="Tracé 1328" d="M1035.829,658.339c-.809.441-1.512.716-1.572.594s.544-.561,1.352-1,.489-.119.551,0S1036.635,657.9,1035.829,658.339Z" transform="translate(-817.407 -529.252)" fill="#ffd037"/>
    <path id="Tracé_1329" data-name="Tracé 1329" d="M961.349,641.78s-2,2.624.923,6.56,5.331,7.278,4.356,9.739c0,0-4.408-7.33-8-7.433S957.4,646.186,961.349,641.78Z" transform="translate(-758.476 -517.122)" fill="#80bb9a"/>
    <path id="Tracé_1330" data-name="Tracé 1330" d="M961.349,641.78a3.237,3.237,0,0,0-.408.821c-3.5,4.112-5.365,7.95-2,8.048,3.134.091,6.894,5.694,7.8,7.111a3.036,3.036,0,0,1-.107.322s-4.408-7.33-8-7.433S957.4,646.186,961.349,641.78Z" transform="translate(-758.476 -517.122)" opacity="0.1"/>
    <path id="Tracé_1331" data-name="Tracé 1331" d="M960.09,653.873c0,.921.1,1.67.239,1.67s.239-.747.239-1.67-.129-.477-.255-.477S960.09,652.955,960.09,653.873Z" transform="translate(-760.934 -525.885)" fill="#ffd037"/>
    <path id="Tracé_1332" data-name="Tracé 1332" d="M953.166,658.339c.809.441,1.512.716,1.572.594s-.544-.561-1.352-1-.489-.119-.551,0S952.358,657.9,953.166,658.339Z" transform="translate(-755.286 -529.252)" fill="#ffd037"/>
    <path id="Tracé_1333" data-name="Tracé 1333" d="M962.76,699.033s5.589-.172,7.273-1.372,8.587-2.624,9.014-.716,8.4,9.568,2.09,9.618-14.66-.983-16.342-2.006S962.76,699.033,962.76,699.033Z" transform="translate(-762.967 -558.42)" fill="#a8a8a8"/>
    <path id="Tracé_1334" data-name="Tracé 1334" d="M981.249,715.525c-6.309.05-14.66-.983-16.342-2.006-1.281-.78-1.791-3.578-1.961-4.868h-.186s.353,4.508,2.035,5.532,10.033,2.058,16.342,2.006c1.822-.014,2.45-.663,2.416-1.622C983.3,715.15,982.615,715.513,981.249,715.525Z" transform="translate(-762.967 -568.041)" opacity="0.2"/>
    <path id="Tracé_1335" data-name="Tracé 1335" d="M254.313,187.183h-1.5a1.05,1.05,0,1,0,0-2.1H240.678a1.05,1.05,0,0,0,0,2.1h1.5a1.05,1.05,0,0,0,0,2.1h-2.1a1.05,1.05,0,0,0,0,2.1h12.137a1.05,1.05,0,1,0,0-2.1h2.1a1.05,1.05,0,0,0,0-2.1Z" transform="translate(-211.908 -169.363)" fill="#dee3f3" opacity="0.5"/>
  </g>
</svg>
