<svg xmlns="http://www.w3.org/2000/svg" width="394.397" height="243.183" viewBox="0 0 394.397 243.183">
  <g id="Groupe_75" data-name="Groupe 75" transform="translate(34.547 -225.837)">
    <path id="Tracé_2" data-name="Tracé 2" d="M316.651,157.595c-22.448-.8-43.827-8.043-64.229-15.955S239.48,129.4,217.57,125.2c-14.092-2.7-36.99-9.65-52.456,2.25s-7.511,33.7-9.409,45.351c-1.429,8.761,12.7,42.607,16.033,48.063,11.609,18.979,12.577,41.94,0,60.472-5.9,8.7-3.985,31.059,0,40.5,3.947,9.365,12.231,27.651,36.028,29.278,52.661,3.6,105.6,2.043,158.4.482,19.541-.579,33.186-14.386,40.938-20.813,9.837-8.161,10.957-47.786,3.219-66.21-4.252-10.138-16.4-22.867-10.213-32.27,13.263-20.172,9.044-54.435,10.213-77.5.8-15.837-44.093-26.165-56.864-13.162C340.286,155.014,336.473,158.264,316.651,157.595Z" transform="translate(-125.306 107.802)" fill="#f7e045" opacity="0.1"/>
    <ellipse id="Ellipse_5" data-name="Ellipse 5" cx="26.658" cy="5.127" rx="26.658" ry="5.127" transform="translate(72.972 458.766)" fill="#f7e045"/>
    <ellipse id="Ellipse_6" data-name="Ellipse 6" cx="3.102" cy="4.064" rx="3.102" ry="4.064" transform="translate(96.079 457.652)" fill="#3f3d56"/>
    <ellipse id="Ellipse_7" data-name="Ellipse 7" cx="3.102" cy="4.064" rx="3.102" ry="4.064" transform="translate(96.079 452.685)" fill="#3f3d56"/>
    <ellipse id="Ellipse_8" data-name="Ellipse 8" cx="3.102" cy="4.064" rx="3.102" ry="4.064" transform="translate(96.079 447.719)" fill="#3f3d56"/>
    <ellipse id="Ellipse_9" data-name="Ellipse 9" cx="3.102" cy="4.064" rx="3.102" ry="4.064" transform="translate(96.079 442.756)" fill="#3f3d56"/>
    <ellipse id="Ellipse_10" data-name="Ellipse 10" cx="3.102" cy="4.064" rx="3.102" ry="4.064" transform="translate(96.079 437.789)" fill="#3f3d56"/>
    <ellipse id="Ellipse_11" data-name="Ellipse 11" cx="3.102" cy="4.064" rx="3.102" ry="4.064" transform="translate(96.079 434.822)" fill="#3f3d56"/>
    <ellipse id="Ellipse_12" data-name="Ellipse 12" cx="3.102" cy="4.064" rx="3.102" ry="4.064" transform="translate(96.079 429.856)" fill="#3f3d56"/>
    <path id="Tracé_3" data-name="Tracé 3" d="M205.531,578.8a14.715,14.715,0,0,0,1.158-1.7l-8.156-1.34,8.819.065a14.882,14.882,0,0,0,.284-11.779l-11.83,6.139,10.924-8.011a14.867,14.867,0,1,0-24.557,16.637,15,15,0,0,0-1.7,2.713l10.589,5.5-11.288-3.787a14.86,14.86,0,0,0,2.4,13.961,14.867,14.867,0,1,0,23.37,0,14.867,14.867,0,0,0,0-18.385Z" transform="translate(-94.73 -180.861)" fill="#f7e045"/>
    <path id="Tracé_4" data-name="Tracé 4" d="M179,645.619a14.805,14.805,0,0,0,3.182,9.19,14.867,14.867,0,1,0,23.37,0C207.532,652.287,179,643.955,179,645.619Z" transform="translate(-94.736 -238.497)" opacity="0.1"/>
    <path id="Tracé_5" data-name="Tracé 5" d="M575.815,612.168c.226,2.913,1.347,5.928,3.707,7.647s6.114,1.686,7.916-.623a8.855,8.855,0,0,0,1.315-2.858c1.518-4.8,2.6-10.05.932-14.8-3.754-.244-8.105-2.01-10.924,1.092A12.941,12.941,0,0,0,575.815,612.168Z" transform="translate(-425.034 -210.143)" fill="#3f3d56"/>
    <path id="Tracé_6" data-name="Tracé 6" d="M590.089,527.677c-.5,4.235-1.347,8.451-1.26,12.715.033,1.646.208,3.277.211,4.93a24.3,24.3,0,0,1-3.277,12.224,4.1,4.1,0,0,1-.9,1.158,2.877,2.877,0,0,1-3.132.106,6.161,6.161,0,0,1-2.225-2.414c-2.713-4.646-2.789-10.294-3.863-15.563-.823-4.031-2.265-7.938-2.786-12.016-.339-2.625-.288-5.3-.827-7.894-.164-.783-.623-1.959-.925-3.113a4.68,4.68,0,0,1-.146-2.738c.579-1.424,2.476-.87,3.71-.783a85.4,85.4,0,0,0,13.057-.033,1.122,1.122,0,0,1,1.511.783,17.677,17.677,0,0,1,.79,2.913A32.364,32.364,0,0,1,590.089,527.677Z" transform="translate(-421.881 -155.012)" fill="#fabdbd"/>
    <path id="Tracé_7" data-name="Tracé 7" d="M607.056,514.479a3.2,3.2,0,0,0-.674,0q-3.124.251-6.252.262Q603.593,514.748,607.056,514.479Z" transform="translate(-440.523 -155.235)"/>
    <path id="Tracé_8" data-name="Tracé 8" d="M582.484,558.81a6.16,6.16,0,0,1-2.225-2.414c-2.713-4.646-2.789-10.294-3.863-15.563-.823-4.031-2.265-7.938-2.786-12.016-.339-2.625-.288-5.3-.827-7.894-.164-.783-.623-1.959-.925-3.113a4.681,4.681,0,0,1-.146-2.738,1.551,1.551,0,0,1,1.456-.947c-.921-.062-1.821.047-2.185.947a4.68,4.68,0,0,0,.146,2.738c.3,1.154.761,2.33.925,3.113.539,2.593.488,5.269.827,7.894.521,4.082,1.963,7.989,2.786,12.016,1.074,5.269,1.151,10.924,3.863,15.563a6.161,6.161,0,0,0,2.225,2.414,3.233,3.233,0,0,0,1.908.386A3.359,3.359,0,0,1,582.484,558.81Z" transform="translate(-421.894 -155.013)"/>
    <path id="Tracé_9" data-name="Tracé 9" d="M637.091,537.488c-2.185,4.37-1.821,10.56-1.821,10.56.364,14.565-5.462,45.151-5.462,45.151h-5.1s-.728-33.864,0-36.777-.364-13.108-1.456-27.309a72.9,72.9,0,0,1,2.585-24.327c.408-1.456.692-2.254.692-2.254s8.375-12.38,13.109-6.554c1.092,1.355,1.671,4.089,1.872,7.541C642.16,514.909,638.766,534.134,637.091,537.488Z" transform="translate(-455.116 -142.491)" fill="#fabdbd"/>
    <path id="Tracé_10" data-name="Tracé 10" d="M651.355,503.523c-.2-3.452-.772-6.19-1.872-7.541a3.751,3.751,0,0,0-3.576-1.518,3.882,3.882,0,0,1,2.483,1.518c1.092,1.355,1.671,4.089,1.872,7.541.648,11.39-2.745,30.616-4.42,33.969-2.185,4.369-1.821,10.56-1.821,10.56.364,14.565-5.462,45.151-5.462,45.151h1.092s5.826-30.586,5.462-45.151c0,0-.364-6.19,1.821-10.56C648.61,534.139,652,514.913,651.355,503.523Z" transform="translate(-464.959 -142.495)" opacity="0.1"/>
    <path id="Tracé_11" data-name="Tracé 11" d="M618.081,755a4.738,4.738,0,0,0-1.041,1.136c-.652,1.231.273,2.7,1.264,3.681s2.185,2.028,2.185,3.423a3.413,3.413,0,0,1-1.8,2.68c-.51.32-1.151.728-1.045,1.333a1.253,1.253,0,0,0,.193.426,5.636,5.636,0,0,0,3.725,2.258,16.8,16.8,0,0,0,4.464.036.9.9,0,0,0,.612-.211.83.83,0,0,0,.164-.5,6.54,6.54,0,0,1,.364-2.283c.473-.95,1.562-1.435,2.185-2.287a5.083,5.083,0,0,0,.422-4.2,17.333,17.333,0,0,0-4.781-8.739C622.174,749.3,619.963,753.229,618.081,755Z" transform="translate(-451.137 -305.623)" fill="#3f3d56"/>
    <path id="Tracé_12" data-name="Tracé 12" d="M455.465,226.386c2.032-3.037,1.5-7.283-.572-10.3s-5.411-4.923-8.852-6.15a24.917,24.917,0,0,0-14.521-.976c-3.794.987-7.2,3.051-10.778,4.646a46.35,46.35,0,0,1-20.129,4.005c-7.687-.215-16.109-2.185-22.558,2.017-11.8,7.679-6.554,28.58-17.722,37.141-3.011,2.309-6.8,3.317-10.152,5.1s-6.525,4.879-6.445,8.673a10.091,10.091,0,0,0,1.821,5.1A23.591,23.591,0,0,0,365.414,286.3a25.284,25.284,0,0,0,20.009-10.662c1.132-1.606,2.13-3.394,3.772-4.464,3.277-2.148,7.6-.644,11.506-.324a18.657,18.657,0,0,0,19.149-14.4c.728-3.659.6-8.033,3.547-10.33,2.378-1.853,5.724-1.457,8.739-1.773,5.513-.572,9.864-4.005,12.857-8.491,1.373-2.057,1.533-4.515,3.4-6.136C450.415,227.94,453.535,229.255,455.465,226.386Z" transform="translate(-277.488 39.456)" fill="#3f3d56"/>
    <path id="Tracé_13" data-name="Tracé 13" d="M460.33,233.424a46.16,46.16,0,0,0,9.529-.728c-.867.025-1.741.025-2.611,0-6.034-.167-12.519-1.413-18.148.087C452.814,232.819,456.656,233.322,460.33,233.424Z" transform="translate(-344.486 24.342)"/>
    <path id="Tracé_14" data-name="Tracé 14" d="M416.874,381.015c-1.642,1.071-2.64,2.858-3.772,4.464a25.58,25.58,0,0,1-14.372,9.908c.426.018.852.029,1.282.026a25.273,25.273,0,0,0,20.009-10.662c1.132-1.606,2.13-3.394,3.772-4.464l.284-.175C421.506,379.759,418.983,379.635,416.874,381.015Z" transform="translate(-312.457 -69.658)"/>
    <path id="Tracé_15" data-name="Tracé 15" d="M600.042,216.051c-2.072-3.008-5.411-4.923-8.852-6.15a24.917,24.917,0,0,0-14.521-.976c-.109.025-.215.058-.32.087a27.873,27.873,0,0,1,7.923,1.617c3.441,1.227,6.78,3.142,8.852,6.15s2.6,7.283.572,10.3c-1.93,2.88-5.05,1.566-7.093,3.339-1.872,1.62-2.032,4.078-3.4,6.135a18.724,18.724,0,0,1-10.618,8.084c1.533-.182,3.15-.16,4.679-.32,5.513-.572,9.864-4.005,12.857-8.491,1.373-2.057,1.533-4.515,3.4-6.135,2.043-1.773,5.163-.459,7.093-3.339C602.649,223.319,602.121,219.059,600.042,216.051Z" transform="translate(-423.004 39.476)"/>
    <path id="Tracé_16" data-name="Tracé 16" d="M522.921,309.234c-3,.313-6.343-.08-8.739,1.773-2.946,2.3-2.8,6.671-3.547,10.33-1.278,6.4-6.47,11.674-12.635,13.636l.433.04a18.657,18.657,0,0,0,19.149-14.4c.728-3.659.6-8.033,3.547-10.33a6.576,6.576,0,0,1,2.261-1.092C523.227,309.194,523.077,309.219,522.921,309.234Z" transform="translate(-375.581 -24.708)"/>
    <path id="Tracé_17" data-name="Tracé 17" d="M575.295,175.1s-8.739,17.478-11.652,24.032-29.494,16.386-33.135,16.75a4.69,4.69,0,0,0-2.6,1.253,14.322,14.322,0,0,0-3.226,4.938s1.456,9.831-.364,26.217c-.036.317-.069.634-.1.939-1.588,15.592,1.737,19.269,1.737,19.269s-35.32,13.473-34.228-4.005a79.205,79.205,0,0,0-.047-12.883,54.1,54.1,0,0,0-2.09-10.145c-.863-3.019-1.893-6.328-2.96-10.836a47.529,47.529,0,0,0-2.025-6.609c-.025-.066-.051-.131-.073-.193-1.821-4.519-3.641-5.979-4.683-6.452a15.742,15.742,0,0,1-2.8-1.573,147.083,147.083,0,0,1-17.016-14.3c-8.739-8.739-17.478-29.494-17.478-29.494s-2.549-12.016,3.277-21.847,3.277,19.3,3.277,19.3,10.56,14.2,13.108,20.755a10.952,10.952,0,0,0,5.1,5.993,60.442,60.442,0,0,1,8.062,5.039,47.083,47.083,0,0,0,5.422,3.539c4.071,2.185,8.947,4.65,13.01,5.3a12.27,12.27,0,0,0,1.919.164,1.988,1.988,0,0,0,1.6-.728c1.092-1.285,1.067-4.053.816-6.328a32.162,32.162,0,0,0-.6-3.507s11.834-7.465,11.47,1.639a10.174,10.174,0,0,0,.277,2.993,5.189,5.189,0,0,0,3.528,3.86,8.739,8.739,0,0,0,4.37.142,4.271,4.271,0,0,0,1.289-.441c1.092-.728,12.016-4.005,15.293-4.369s19.663-8.375,19.663-8.375l17.842-24.76s-.364-14.565,6.918-20.391S575.295,175.1,575.295,175.1Z" transform="translate(-339.975 77.703)" fill="#fabdbd"/>
    <path id="Tracé_18" data-name="Tracé 18" d="M667.047,392.456a72.589,72.589,0,0,0-.419,8.812c.036-1.923.164-4.118.419-6.627.029-.306.062-.623.1-.939a142.8,142.8,0,0,0,.91-16.892,146.278,146.278,0,0,1-.91,14.707C667.124,391.834,667.077,392.151,667.047,392.456Z" transform="translate(-482.804 -67.706)"/>
    <path id="Tracé_19" data-name="Tracé 19" d="M594.964,289.07c-.244.142-.364.229-.364.229a31.2,31.2,0,0,1,.7,4.734A22.329,22.329,0,0,0,594.964,289.07Z" transform="translate(-437.006 -11.915)"/>
    <path id="Tracé_20" data-name="Tracé 20" d="M461.733,181.742c.178-2.549.444-7.119.393-11.182-.062,5.433-.546,10.975-.546,10.975Z" transform="translate(-352.422 63.443)"/>
    <path id="Tracé_21" data-name="Tracé 21" d="M578.542,466.53a2.389,2.389,0,0,1-.026.426c-1.092,17.478,34.228,4.005,34.228,4.005a5.929,5.929,0,0,1-.921-1.85C606.5,471.005,579.769,479.81,578.542,466.53Z" transform="translate(-426.764 -124.757)"/>
    <path id="Tracé_22" data-name="Tracé 22" d="M719.673,177.6s-8.739,17.478-11.652,24.032-29.494,16.386-33.135,16.75a4.69,4.69,0,0,0-2.6,1.253,14.322,14.322,0,0,0-3.226,4.938s.087.594.193,1.722a13.538,13.538,0,0,1,3.033-4.475,4.691,4.691,0,0,1,2.6-1.253c3.641-.364,30.222-10.2,33.135-16.75s11.652-24.032,11.652-24.032,6.157-18.7,5.48-24.291C724.593,162.656,719.673,177.6,719.673,177.6Z" transform="translate(-484.354 73.026)"/>
    <path id="Tracé_23" data-name="Tracé 23" d="M491.671,278.034a54.094,54.094,0,0,0-2.09-10.144c-.863-3.019-1.893-6.328-2.96-10.836a47.529,47.529,0,0,0-2.025-6.609c-.025-.066-.051-.131-.073-.193-1.821-4.519-3.641-5.979-4.683-6.452a15.745,15.745,0,0,1-2.8-1.573,147.088,147.088,0,0,1-17.016-14.3c-8.739-8.739-17.478-29.494-17.478-29.494a32.927,32.927,0,0,1-.539-5.309,35.1,35.1,0,0,0,.539,7.494s8.739,20.755,17.478,29.494a147.082,147.082,0,0,0,17.016,14.3,15.739,15.739,0,0,0,2.818,1.573c1.038.473,2.855,1.934,4.683,6.452.022.062.047.127.073.193a47.527,47.527,0,0,1,2.014,6.609c1.067,4.508,2.1,7.818,2.96,10.836a54.1,54.1,0,0,1,2.09,10.145c.153,1.522.244,3.179.269,5.043A63.425,63.425,0,0,0,491.671,278.034Z" transform="translate(-339.965 49.098)"/>
    <path id="Tracé_24" data-name="Tracé 24" d="M601.883,338.515a21.706,21.706,0,0,0-1.457,2.869,17.338,17.338,0,0,0-.655,4.814,38.654,38.654,0,0,1-1.034,6.744,7.459,7.459,0,0,1-.364,1.194,3.154,3.154,0,0,1-.426.728,3.1,3.1,0,0,1-.677.615,7.941,7.941,0,0,1-1.234.674c-5.069,2.367-10.6,4.457-16.127,3.641a23.467,23.467,0,0,1-6.711-2.258c-2-.972-4.268-2.126-6.343-1.318h0a3.194,3.194,0,0,1-1.016.317.968.968,0,0,1-.2-.018c-.685-.131-.685-2.44-.841-3.121-.6-2.614-.688-4.734-1.045-7.006a22.981,22.981,0,0,0-.878-3.7,43.73,43.73,0,0,1-1.9-13.72c0-.229-1.638,0-2.185-.022-.138,0-.215-.022-.182-.069a.723.723,0,0,1,.109-.124,1.664,1.664,0,0,1,.652-.324l.43-.127c2.25-.637,4.734-.9,6.416-2.487,1.748-1.635,2.185-4.246,2.108-6.634a39.479,39.479,0,0,1-.335-4.18,12.267,12.267,0,0,0,1.919.164,1.988,1.988,0,0,0,1.6-.728,28.762,28.762,0,0,1,1.573,3.641,25.162,25.162,0,0,0,2,4.5,7.621,7.621,0,0,0,6.816,3.492,6.331,6.331,0,0,0,5.637-4.916c.419-2.312-.554-5.64-.532-8.043a8.739,8.739,0,0,0,4.369.142,3.941,3.941,0,0,1,.157.455c.819,2.811,1.912,6.037,4.661,7.035,1.777.641,3.878.16,5.52,1.092a3.543,3.543,0,0,1,.364.24,4.031,4.031,0,0,1,.965,1.023,8.226,8.226,0,0,1,1.169,3.67A20.362,20.362,0,0,1,601.883,338.515Z" transform="translate(-414.115 -27.201)" fill="#f7e045"/>
    <path id="Tracé_25" data-name="Tracé 25" d="M606.307,289.3a12.409,12.409,0,0,1-11.149-1.125,32.157,32.157,0,0,0-.6-3.507s11.834-7.465,11.47,1.639A10.176,10.176,0,0,0,606.307,289.3Z" transform="translate(-436.981 -7.285)" opacity="0.1"/>
    <circle id="Ellipse_13" data-name="Ellipse 13" cx="12.38" cy="12.38" r="12.38" transform="translate(152.478 257.358)" fill="#fabdbd"/>
    <path id="Tracé_26" data-name="Tracé 26" d="M555.06,341.876s24.032-15.293,98.678,1.092,117.976,3.277,117.976,3.277v17.114s-83.749,9.1-115.792,0-77.657-14.354-93.631-.259Z" transform="translate(-411.864 -41.369)" fill="#f86d70"/>
    <path id="Tracé_27" data-name="Tracé 27" d="M555.06,341.876s24.032-15.293,98.678,1.092,117.976,3.277,117.976,3.277v17.114s-83.749,9.1-115.792,0-77.657-14.354-93.631-.259Z" transform="translate(-411.864 -41.369)" opacity="0.1"/>
    <path id="Tracé_28" data-name="Tracé 28" d="M557.06,343.876s23.3-15.293,97.949,1.092,117.248,3.277,117.248,3.277l.364,15.657s-83.02,9.1-115.063,0-77.293-15.446-93.267-1.351Z" transform="translate(-413.136 -42.641)" fill="#d30005"/>
    <path id="Tracé_29" data-name="Tracé 29" d="M236.632,375.218s-24.032,15.293-98.678-1.092-71-3.277-71-3.277V353.735s36.777-9.1,68.82,0,77.657,14.354,93.631.259Z" transform="translate(-101.468 -50.461)" fill="#f86d70"/>
    <path id="Tracé_30" data-name="Tracé 30" d="M236.632,375.218s-24.032,15.293-98.678-1.092-71-3.277-71-3.277V353.735s36.777-9.1,68.82,0,77.657,14.354,93.631.259Z" transform="translate(-101.468 -50.461)" opacity="0.1"/>
    <path id="Tracé_31" data-name="Tracé 31" d="M236.59,375.762s-23.3,15.293-97.95-1.092-70.276-3.277-70.276-3.277L68,355.735s36.048-9.1,68.091,0,77.293,15.446,93.267,1.351Z" transform="translate(-102.154 -51.732)" fill="#d60000"/>
    <path id="Tracé_32" data-name="Tracé 32" d="M565.01,239.455c-.364-2.272-.925-5.134.976-6.434a4.042,4.042,0,0,1,2.254-.583c3.936-.04,7.7,2.7,11.557,1.9a6.514,6.514,0,0,0,2.549-11.6,13.088,13.088,0,0,0-5.294-1.919c-4.883-1-9.981-2.006-14.8-.728s-9.227,5.6-8.841,10.56a14.916,14.916,0,0,0,2.654,6.554c.961,1.537,4.7,8.739,6.521,8.848C565.148,246.2,565.261,240.941,565.01,239.455Z" transform="translate(-410.799 32.333)" fill="#3f3d56"/>
    <path id="Tracé_33" data-name="Tracé 33" d="M606.251,461.7s-25.125,6.19-33.5,0c0,0-3.641,14.2-2.549,21.483,0,0,17.842,1.092,19.663,2.185,0,0,.364-2.913,2.185-1.457,0,0,6.19-7.282,17.478-.728C609.528,483.183,611.713,466.07,606.251,461.7Z" transform="translate(-421.363 -121.686)" fill="#f7e045"/>
    <path id="Tracé_34" data-name="Tracé 34" d="M595.175,227.52a7.23,7.23,0,0,0-.812-.51,6.5,6.5,0,0,1-3.565,10.658c-3.86.8-7.621-1.941-11.557-1.9a4.042,4.042,0,0,0-2.254.583c-1.9,1.3-1.344,4.162-.979,6.434.24,1.486.142,6.744-2.414,6.6h-.044c.7.856,1.358,1.435,1.864,1.456,2.549.142,2.654-5.1,2.414-6.6-.364-2.272-.921-5.134.98-6.434a4.041,4.041,0,0,1,2.254-.583c3.936-.04,7.7,2.7,11.557,1.9a6.514,6.514,0,0,0,2.549-11.6Z" transform="translate(-423.621 27.548)" opacity="0.1"/>
    <path id="Tracé_35" data-name="Tracé 35" d="M81.394,175.382s-27.226-11.448-30.794,9.2a5.021,5.021,0,0,0,.728,5.873s.557-1.424,3.19.051a13.692,13.692,0,0,0,2.971,1.205,6.685,6.685,0,0,0,4.231-.226h0s8.954-.484,16.484-12.2c0,0,3.226-2,3.39-2.742l-5.4.364s.411,3.951-1.821,6.321c0,0,1.984-6.128,1.03-6.3-.193-.036-2.851.317-2.851.317s.688,6.867-2.913,10.421c0,0,3.343-6.988,1.886-10.3l-3.98.768s1.092,7.224-2.847,11.43c0,0,3.237-7.428,1.988-11.2l-3.816,1.282s.921,7.071-2.374,10.56c0,0,2.877-8.961,1.522-10.2,0,0-3.43,1.391-4.166,2.185,0,0,.546,5.1-1.551,6.918,0,0,1.289-6.19.652-6.445,0,0-3.987,3-5.2,5.589a15.115,15.115,0,0,1,4.7-6.19,8.383,8.383,0,0,0-4.734.666s1.38-2.625,5.7-1.38c0,0,3.2-2.214,3.842-2.185,0,0-4.085-1.821-7.039-1.6,0,0,3.164-1.821,8.04,1.223l3.8-1.376s-5.276-2.705-7.923-2.695c0,0,3.517-1.358,8.914,2.429l3.892-.8s-4.369-2.676-7.315-3.3c0,0,3.536-.557,8.44,3.117l2.665-.226s-3.226-1.9-4.2-2.36-.932-.765-.932-.765a12.708,12.708,0,0,1,6.252,3.008S81.368,175.721,81.394,175.382Z" transform="translate(-10.678 63.39)" fill="#f7e045"/>
    <path id="Tracé_36" data-name="Tracé 36" d="M60.91,98.769s9.664-22.31,23.533-12.078a4.129,4.129,0,0,1,2.913,3.9s-1.143-.528-1.864,1.846A11.429,11.429,0,0,1,84.4,94.844a5.462,5.462,0,0,1-2.618,2.269h0s-5.593,4.814-16.75,2.145c0,0-3.055.655-3.579.3L64.864,96.7s2,2.582,4.69,2.709c0,0-4.672-2.512-4.2-3.161.095-.131,1.872-1.435,1.872-1.435s3.506,4.471,7.647,4.541c0,0-5.968-2.25-6.987-5.043l2.8-1.821s3.474,4.912,8.2,5.167c0,0-6.154-2.549-7.563-5.52l3-1.413s3.481,4.734,7.417,4.912c0,0-6.813-3.685-6.707-5.189a15.823,15.823,0,0,1,3.725-1.063s2.574,3.332,4.872,3.237c0,0-4.293-2.946-4.056-3.459,0,0,4.078-.488,6.274.364a12.426,12.426,0,0,0-6.318-1,6.825,6.825,0,0,1,3.182-2.294s-2.316-.776-4.173,2.425c0,0-3.161.506-3.528.885,0,0,1.384-3.419,3.277-4.959,0,0-2.913.728-4.078,5.305l-3.04,1.351s1.591-4.613,3.19-6.11c0,0-2.866,1.194-3.914,6.518l-2.764,1.744a25.384,25.384,0,0,1,2.465-6.11S67.726,88.96,66.9,93.937l-1.711,1.384s.837-2.964,1.154-3.794.117-.983.117-.983a10.491,10.491,0,0,0-2,5.349S61.106,98.959,60.91,98.769Z" transform="translate(186.354 191.48)" fill="#f7e045"/>
  </g>
</svg>
