<svg id="Calque_1" data-name="Calque 1" xmlns="http://www.w3.org/2000/svg" viewBox="0 0 181.41 189.35"><defs><style>.cls-1{fill:#3d6d69;}.cls-2{fill:#fa9e41;}.cls-3{fill:#f92a47;}.cls-4{fill:#2c6d6b;}.cls-5{fill:#c11324;}.cls-6{fill:#bd1114;}.cls-7{fill:#235250;}.cls-8{fill:#dc7820;}.cls-9{fill:#fcc877;}.cls-10{fill:#29b1ac;}.cls-11{fill:#950e0f;}.cls-12{fill:#fc7386;}.cls-13{fill:#2c6c6a;}.cls-14{fill:#fdc736;}.cls-15{fill:#23514f;}.cls-16{fill:#fcc736;}.cls-17{fill:#29b0ab;}.cls-18{fill:#f82a46;}.cls-19{fill:#c01324;}.cls-20{fill:#fbc777;}.cls-21{fill:#f99d40;}.cls-22{fill:#fffbdc;}.cls-23{fill:#d8761f;}.cls-24{fill:#28afaa;}.cls-25{fill:#fa7285;}.cls-26{fill:#f9c676;}.cls-27{fill:#d9771f;}.cls-28{fill:#fac676;}.cls-29{fill:#e38f28;}.cls-30{fill:#f7ed6a;}.cls-31{fill:#fcf16c;}.cls-32{fill:#e79229;}.cls-33{fill:#f9c575;}.cls-34{fill:#22504e;}.cls-35{fill:#cd8224;}.cls-36{fill:#f46e80;}.cls-37{fill:#63a09d;}.cls-38{fill:#efba32;}.cls-39{fill:#920f10;}.cls-40{fill:#ea943c;}.cls-41{fill:#27605e;}.cls-42{fill:#f86074;}.cls-43{fill:#518987;}.cls-44{fill:#24938f;}.cls-45{fill:#f8f8f8;}</style></defs><title>Capture d’écran 2020-02-06 à 18.35.31</title><path d="M90.32,92.62a24.74,24.74,0,0,0,.2-11.85c-.44-2.25-.85-4.5,1.23-6.23s4.39-1.16,6.62-.34c6.24,2.28,9.61,7.23,11.61,13.17,3,8.91,2.29,17.24-4.76,24.2-2.91,2.88-6.62,4.21-10.89,4.83,1.49,1.36,2.84,2.45,4,3.69a37.33,37.33,0,0,1,10.39,24.22,96.21,96.21,0,0,0,5.61,27.48,30.11,30.11,0,0,0,4.91,8.91,10.48,10.48,0,0,1,2.65,6.84c0,1,.32,1.44,1.39,1.57,4.58.53,7.74-1.22,9.5-5.55a77.46,77.46,0,0,0,3.07-10.25c2.32-9.08,4.37-18.24,7.87-27a57.15,57.15,0,0,1,4.53-9.14c6.85-10.91,16.79-15.28,29.41-12.91a63.42,63.42,0,0,1,11.67,3.49c.94.37,1.89.84,1.84,2.08s-1,1.56-2,1.89c-5.54,1.84-10.2,5.1-14.81,9.14a55.92,55.92,0,0,1,9,2.34c12.07,4.9,18.16,14.48,20.85,26.7a40.48,40.48,0,0,1,1,8.15c0,1.09.11,2.2-1.17,2.74s-1.83-.38-2.57-1c-7.21-6.26-15.43-10-25.14-9.93-1.56,0-3.11.2-4.71.31.19,1,1,.93,1.54,1.2,13.1,6.81,20.27,20.75,18.33,35.82-.35,2.72-.88,5.41-1.41,8.1a2.91,2.91,0,0,1-2.87,2.65c-1.72,0-2.65-.94-3.1-2.64-2.47-9.29-8.14-16.23-16.09-21.43-.44-.29-.83-.83-1.75-.55a20,20,0,0,1,3.07,12.74,22.07,22.07,0,0,1-17.54,19.57c-1,.19-2,.59-2.8-.31s-.37-2,.14-3c2.78-5.59,2.24-11.08-.63-16.47-.15-.27-.36-.51-.8-1.11a26.61,26.61,0,0,1-2.58,9.64c-1.68,3.14-3.89,4.08-7.2,2.69-1-.42-1.22-.2-1.59.6a53.12,53.12,0,0,1-2.45,4.89c-1.79,3-4.35,3.75-7.44,2.24-.69-.34-1.15-.8-1.86,0-4.27,4.84-8.09,9.93-9.81,16.29a21.92,21.92,0,0,0-.49,7.44c.26,3.67.63,4.07,4.2,4.69,3.17.56,5,2.61,4.83,5.33s-2.19,4.2-5.49,4.21q-21.48,0-43,0c-.33,0-.67,0-1,0-3.38-.26-5.51-2.14-5.55-4.91s1.86-5,5.17-5.31c3.56-.32,7.15-.18,10.72-.44,4.5-.34,5.79-1.92,5.67-6.41s-2.5-7.41-6.11-9.65-7.39-2.9-11.22-4c-7.12-2-14.19-4.13-20.66-7.86a34.83,34.83,0,0,1-17.1-22c-1.22-4.51-2.47-8.68-1.44-13.32a38.42,38.42,0,0,1,3.26-9.37c.73-1.39.41-1.81-.88-2.55a15.16,15.16,0,0,1-5.61-21.15,45.09,45.09,0,0,0,3.56-6.56c.78-2.08.24-3.25-2-3.59a12.94,12.94,0,0,0-4.44-.25c-3,.56-3.77-.18-3.29-3.34a38,38,0,0,1,10.33-20.88c1.4-1.46,1.94-2.46,1.06-4.55-1.67-4-.53-7.88,1.66-11.39,4.32-6.9,11-10.43,18.61-12.42,4.29-1.13,7.85-3.08,10.42-6.74a3.82,3.82,0,0,1,4.78-1.61c1.91.69,2.6,2.17,2.59,4.11A16.47,16.47,0,0,1,72.79,94c2.62-2.41,3.1-5.19,3.47-8,.5-3.62,2-5.53,4.87-6s5.27.83,6.87,4.13a13.45,13.45,0,0,1,1.47,5c.45,1.19-.27,2.52.44,3.68,0,0,.15,0,.22,0A.85.85,0,0,0,90.32,92.62Z" transform="translate(-23.89 -73.41)"/><path class="cls-1" d="M90.32,92.62a.93.93,0,0,1-.85,1.07V89.11C90.38,90.13,89.42,91.6,90.32,92.62Z" transform="translate(-23.89 -73.41)"/><path class="cls-2" d="M52.39,201.48a8,8,0,0,1-2.16-3.16c-.69-1.55-1.71-2.06-3.28-1.24a2.36,2.36,0,0,0-3.33.37A5.8,5.8,0,0,1,37.89,199a6.56,6.56,0,0,1-1.39-4.94c1-3.08,3.75-4.61,6-6.51a79.45,79.45,0,0,1,14.84-9.63c6.94-3.6,14.1-6.76,20.88-10.7a21.59,21.59,0,0,0,10.14-12.13A26.38,26.38,0,0,0,89,143.65c-.32-2-1-2.87-3.06-2.41-2.46-.78-3.2-2.2-2.28-5a12.42,12.42,0,0,0,.52-7.78,11.45,11.45,0,0,0-7.39-8.09l-1.4-.51a2.65,2.65,0,0,1-2-2.54,3.1,3.1,0,0,1,1.81-2.76,8,8,0,0,1,4.11-.68A10,10,0,0,1,83,115c1.56,1.32,3.56,1.88,5.24,3,7.54,5.22,12.12,12.26,13.25,21.39,1,7.83,1.14,15.75,2.53,23.54s3.53,14.9,8.92,20.81a14.85,14.85,0,0,1,2.88,4.94c.34.93.77,1.88,0,2.84-2.64,1.39-5,.35-7.27-.92-1.27-.71-2.41-1.14-3.63,0-1.7-1.05-2.77-.41-3.44,1.29A10.88,10.88,0,0,1,99,195.85a5.87,5.87,0,0,1-5.2,1.62,13.82,13.82,0,0,1-2-1.38,2.12,2.12,0,0,0-3.39,0c-1.64-.53-2.76,0-3.81,1.39-3.86,5.1-9.21,6.32-14.88,3.56-1.46-.88-2.4-3.54-4.75-1.37a4.2,4.2,0,0,0-3.91.95A8.46,8.46,0,0,1,52.39,201.48Z" transform="translate(-23.89 -73.41)"/><path class="cls-3" d="M79.28,113.93c-1.25.39-2.54.72-3.76,1.19a2.4,2.4,0,0,0-1.69,2.49c.06,1.34,1.09,1.54,2,1.8,5.3,1.41,8.18,5,9.27,10.23a9.59,9.59,0,0,1-.65,6.07c-1.1,2.37-.77,4.13,1.43,5.53l-.87,1.67c-1.91.72-2.5,2.13-2.55,4.11-.21,8.13-1.93,10-10,9.68a15.25,15.25,0,0,0-13.73,6.57c-2.27,3-4.53,6.18-7.86,8.28a17,17,0,0,1-9.35,3c-.89.14-1.74-.37-2.63-.16a10.62,10.62,0,0,1-6.46-6.82c.43-3.76,2.9-6.25,5.6-8.44,3.54-2.86,7.31-5.42,9.73-9.46A42,42,0,0,0,52.54,138a4.48,4.48,0,0,0-.11-2.91c-1.06-6-4.52-9.72-10.53-11-.13-1.83,1.35-2.57,2.49-3.39a39.53,39.53,0,0,1,22.54-7.85,2,2,0,0,0,1-.19A42.81,42.81,0,0,1,79.28,113.93Z" transform="translate(-23.89 -73.41)"/><path class="cls-4" d="M110.42,240.63a2.85,2.85,0,0,1-4.1-1c-2.11-3.22-5.35-4.64-8.83-5.59-8.47-2.33-17.21-3.47-25.62-6-7.63-2.32-15.28-4.6-21.78-9.46a27.64,27.64,0,0,1-7.69-8c1.51-1.87,5.56-2.87,7.44-1.62,4.72,3.15,9.53,3.05,14.43.64a3.76,3.76,0,0,1,4.38.29,10.94,10.94,0,0,0,7.8,2c2.7-.25,4.37.67,5.83,3.13C86,221.32,92,224.89,98.87,227a52.46,52.46,0,0,0,13.54,1.93,6.14,6.14,0,0,1,2.69.35c.93.84-.24,1.29-.37,1.94A28.89,28.89,0,0,0,110.42,240.63Z" transform="translate(-23.89 -73.41)"/><path class="cls-4" d="M166.31,144.66a11.08,11.08,0,0,1,6.5,0c7.79,2.13,13.28,7.21,17.61,13.76,1.05,1.58,2.3,3.23,1.12,5.26-1.27,2.18-3.39,1.78-5.36,1.5a44.23,44.23,0,0,0-24.35,3.35c-1.91.82-3.71,1.85-5.53,2.85-.41.51-1.29.48-1.47,1.26l-4,2.54c-1.32,0-.9-1-.8-1.59,1.79-10.52,5.14-20.28,13.63-27.5A18.29,18.29,0,0,1,166.31,144.66Z" transform="translate(-23.89 -73.41)"/><path class="cls-5" d="M66,99.15c1,1.95,2.54,2.14,4.35,1.18,1-.54,2-1.1,3-1.65,3.75-.88,7.33-.71,10.52,1.75,1.59,2,3.34,2.89,6.11,2.17,4.38-1.16,8.53,0,12.28,2.48.81.53,1.74,1,2,2.09-4.15,5.23-11.48,6.94-18.86,4.73-15.43-4.62-30.45-4.27-44.79,4-2.59,1.5-1.76-1.21-2.2-2.27,1.36-7.1,5.82-11.42,12.39-13.92A26.75,26.75,0,0,1,62.28,98,5.71,5.71,0,0,1,66,99.15Z" transform="translate(-23.89 -73.41)"/><path class="cls-6" d="M138.9,203.53a1.77,1.77,0,0,0-2.08-1.63c-1.57.19-1.51,1.49-1.63,2.63a3.54,3.54,0,0,1-.59.57c-2,.69-3.95,1.36-5.72-.47-.19-1.62-.35-3.24-.58-4.85-.32-2.16-1.15-2.56-3.4-1.68-.79,2.9,0,6-1.06,8.87a2.1,2.1,0,0,1-.73,1c-3.62.43-6.11,2.61-8.71,5a10.81,10.81,0,0,1-8.8,2.58,4.27,4.27,0,0,0-3.62,1.05c-2.06,1.75-4.39,2.89-7.22,2.46a14.72,14.72,0,0,1-6.37-4,7.33,7.33,0,0,1,2.79-8.28,4.29,4.29,0,0,1,3.61-.28,15.44,15.44,0,0,0,8.12-.2,9.56,9.56,0,0,0,5.75-4.11,5.23,5.23,0,0,1,4.91-2.75c3.66,0,6.49-2,8.79-4.59a4.88,4.88,0,0,1,4-2.1c3.43-.38,6.52-1.78,9.68-3.05,1.5-.6,3.38-1.67,4.35.89,1.28,3.83,2.43,7.68,2,11.8a1.9,1.9,0,0,1-.73,1C140.74,203.71,139.86,204.24,138.9,203.53Z" transform="translate(-23.89 -73.41)"/><path class="cls-7" d="M115.36,229.56c-8.29.05-16.4-.78-23.81-4.93a25.12,25.12,0,0,1-10.48-10.27A2.82,2.82,0,0,0,78,212.54c-3.88.28-7.66,0-10.73-2.85-.67-.63-1.23-.19-1.8.1-5.56,2.92-11,3.41-16.35-.59-.43-.33-1-.76-1.6-.39-1.57,1-3.49.93-5.1,1.76a14.21,14.21,0,0,1-2.73-6c2.86.28,5.45,0,7.54-2,.78-.75,1.12,0,1.53.5,4.13,5.4,11.54,7,17.18,1.66.87-.83,1.5-.63,2.36,0a13.39,13.39,0,0,0,9.94,3c1.24-.14,1.55.69,1.93,1.53,4.78,10.4,13.66,15.89,25,15.25a33.1,33.1,0,0,0,15.1-4.55c1.06-.62,2.14-1.21,3.26-1.84a2.64,2.64,0,0,1-.68,3.24,65.85,65.85,0,0,0-6.94,8.75C115.58,230.07,115.51,229.78,115.36,229.56Z" transform="translate(-23.89 -73.41)"/><path class="cls-8" d="M88.36,155.11c-.75,5.24-4,8.76-8.15,11.58-5,3.34-10.48,5.72-15.82,8.38-7.27,3.62-14.5,7.3-20.87,12.44a52.58,52.58,0,0,0-7,6.57,34.12,34.12,0,0,1,4.07-14.25,1.79,1.79,0,0,1,2-1.06c7.31.28,12.91-3.11,17.6-8.37.94-1.05,1.76-2.21,2.62-3.34a12.09,12.09,0,0,1,9.84-5c1.42,0,2.83-.21,4.24-.21C82,161.84,86.08,160,88.36,155.11Z" transform="translate(-23.89 -73.41)"/><path class="cls-7" d="M166.31,144.66c-4.62,4-8.86,8.21-11.26,14a68,68,0,0,0-4.56,15.93c0,.17.25.39.39.59a117,117,0,0,0-9.82,8.38c-1.32,1.31-2.73,2.43-4.95,1.87,3.57-10.29,5.71-21,12.09-30.1C152.63,149,158.37,145,166.31,144.66Z" transform="translate(-23.89 -73.41)"/><path class="cls-9" d="M115.84,191.56a13.86,13.86,0,0,0-4-8.12c-4.57-5-6.63-11.07-7.93-17.44a156.8,156.8,0,0,1-2.62-22.9c-.64-12-6.41-21-17.06-26.82-.47-.25-1.71,0-1.25-1.28,12,3.83,18.72,12.4,21.38,24.35,1.4,6.32,1.06,12.89,2.5,19.24,1.51,6.64,3.13,13.22,6.21,19.37,1.17,2.33,2.92,4.23,4.26,6.42C118.81,186.79,118.9,190.36,115.84,191.56Z" transform="translate(-23.89 -73.41)"/><path class="cls-10" d="M155.79,171.6c4.85-4.06,10.69-5.79,16.73-7a46.34,46.34,0,0,1,15.32.06c1.38.19,2.45,0,3.25-1.15s.28-2.42-.36-3.48a34.29,34.29,0,0,0-16.46-14.52,11,11,0,0,1-1.46-.89c11.82.23,22.13,8.26,26.39,20.61a32.93,32.93,0,0,1,2,9.41,53,53,0,0,0-10.46-5.77c-10.7-4.17-21.17-3.31-31.47,1.4-1,.44-2,.9-2.93,1.35A.39.39,0,0,1,155.79,171.6Z" transform="translate(-23.89 -73.41)"/><path class="cls-4" d="M183.21,203.66c-4.84-7-10.92-12.57-18.9-15.85-1.14-.47-2.32-.85-3.49-1.28-1-.62-.58-1.33.06-1.75,5-3.26,10.23-5.54,16.32-5.29a3.4,3.4,0,0,1,1.63.59c.95.42,1.37,1.34,2,2.07,3,6.2,3.43,12.8,3.17,19.53A2.29,2.29,0,0,1,183.21,203.66Z" transform="translate(-23.89 -73.41)"/><path class="cls-7" d="M178.83,180.08c-6.3-.42-11.88,1.67-17.16,4.83-.65.39-1.47.61-.85,1.62a34.52,34.52,0,0,0-16.63-.56c5.74-5.65,11.71-10.73,19.32-13.44a2.61,2.61,0,0,1,1.42-.25C170.17,173.78,175.14,175.8,178.83,180.08Z" transform="translate(-23.89 -73.41)"/><path class="cls-11" d="M126.34,192.68a6.69,6.69,0,0,0-3.27,2.33c-2.76,3.18-6.1,5.39-10.58,5.07a2.28,2.28,0,0,0-2.36,1.06c-3.55,6.14-9,7.17-15.43,6-3.25-.62-6,1.86-6.32,5.66-.06.74,0,1.5,0,2.24a21.73,21.73,0,0,1-4.58-6.4c-.63-1.26-.41-1.91.8-2.56a13.29,13.29,0,0,0,5.3-4.76c.58-1,1.13-1.08,2.19-.6,6.39,2.91,11.16,1.43,14.72-4.66.77-1.32,1.36-1.42,2.7-.92,3.75,1.42,7.22,1,10.38-1.77C121.76,191.64,124.19,192.94,126.34,192.68Z" transform="translate(-23.89 -73.41)"/><path class="cls-3" d="M104.3,107.17c-3-2.1-6.06-3.88-9.86-4.31a10.86,10.86,0,0,0-4.61.42c-3,1-4.53-.49-6-2.54l.15-.24a.34.34,0,0,1,.45.18c1.08,1.18,2.2,1.11,3.52.32,4.93-2.94,6.53-7.62,6.83-13,.1-1.71-.11-3.45-.18-5.17C101,84.63,105.42,90.53,106,97.24a19.1,19.1,0,0,1-1.28,9.45Z" transform="translate(-23.89 -73.41)"/><path class="cls-7" d="M148.79,199.08c-2.87-2.13-2.64-5.77-4.17-8.56-.33-.62.14-.85.72-.93,7.44-1,17.79.77,20.13,10.89a15.77,15.77,0,0,1-1.09,10.63c-1.28-1.86-1.17-4.33-2.68-6.08a14.34,14.34,0,0,0-10.81-5.3A4.09,4.09,0,0,1,148.79,199.08Z" transform="translate(-23.89 -73.41)"/><path class="cls-12" d="M41.41,174.14c6.73-.47,11.51-4.14,15.37-9.34.89-1.19,1.79-2.38,2.76-3.51A13.76,13.76,0,0,1,70.83,156a31.23,31.23,0,0,0,6.68-.3c2.37-.47,3.36-1.93,3.83-4a28.91,28.91,0,0,0,.54-6.17c0-2,1.37-3.08,3.17-2.66a19.6,19.6,0,0,1,.35,8.85c-.83,4-3,6-7.12,6.35-1.73.14-3.47.24-5.21.27a16.08,16.08,0,0,0-13.75,7.13,25.69,25.69,0,0,1-6.82,6.81A15.72,15.72,0,0,1,40.92,175C40.8,174.54,41.07,174.32,41.41,174.14Z" transform="translate(-23.89 -73.41)"/><path class="cls-5" d="M52.43,135.13c1.15,3.5-.34,6.68-1.51,9.76a26.7,26.7,0,0,1-10.69,13.33,21.48,21.48,0,0,0-7.78,9.39,10,10,0,0,1,.48-9.08c1.6-3.16,3.93-5.95,4.63-9.56.16-.81.82-.84,1.54-.88C48.14,147.5,51.68,144.05,52.43,135.13Z" transform="translate(-23.89 -73.41)"/><path class="cls-13" d="M94.76,219c2.9-.73,5.8-1.42,7.77-4,.64-.82,1.52-.5,2.3-.38,4.63.69,8.59-.63,11.43-4.33,1.29-1.68,2.52-2.61,4.64-2.35a6.35,6.35,0,0,0,1.93-.35c.86,2.65-.78,4.64-1.8,6.79a7,7,0,0,1-1.22,1.52c-7,4.23-14.39,6.28-22.55,4.09A5.46,5.46,0,0,1,94.76,219Z" transform="translate(-23.89 -73.41)"/><path class="cls-4" d="M163.85,141a32.75,32.75,0,0,0-10,3.63c-1.62-.44-.78-1.59-.5-2.32,2-5.34,5.34-9.5,10.68-11.8a24.85,24.85,0,0,1,17.15-1.18c.56,1.21-.51,1.22-1.11,1.36C173.46,132.27,168.36,136.19,163.85,141Z" transform="translate(-23.89 -73.41)"/><path class="cls-13" d="M148.79,199.08c5.37-.27,10,1.32,13.48,5.57.2,6.41-2.47,11.56-6.92,16-.59.37-1.84,1.41-1.4-.28C156.08,212.24,153.13,205.52,148.79,199.08Z" transform="translate(-23.89 -73.41)"/><path class="cls-14" d="M46.07,136.16c-.91-1.28-2.27-1.61-3-.31-1.44,2.46-3.71,2.53-6,2.67s-4.65.07-6.85.78c-1.92.61-2.25.12-1.54-1.59.22-.52.47-1,.71-1.54a16.21,16.21,0,0,1,8-6.26c2.93-1,5.77-1.21,8.61.24a7.94,7.94,0,0,1,1.34,10.45C45.44,139.53,46.58,137.61,46.07,136.16Z" transform="translate(-23.89 -73.41)"/><path class="cls-12" d="M104.69,106.69c-.19-2.39.73-4.64.72-7,0-7.09-2.73-12.45-9.28-15.62a9.94,9.94,0,0,1-1.55-1.16c-.22-1.22-.42-2.44-.66-3.66-.39-2,.54-2.4,2.22-1.92a12.64,12.64,0,0,1,4.8,2.51C106.91,84.94,111.24,97.79,104.69,106.69Z" transform="translate(-23.89 -73.41)"/><path class="cls-15" d="M181.34,129.67c-11.41-2-22.92.75-27.43,13-.21.59-.95,1.33,0,2a40.94,40.94,0,0,0-8.23,7.55c2.55-7.61,5.45-15,12-20.25,5.79-4.62,12.44-5.55,19.51-4.08a27.27,27.27,0,0,1,6.2,1.7A1.43,1.43,0,0,1,181.34,129.67Z" transform="translate(-23.89 -73.41)"/><path class="cls-16" d="M114.39,259q-12.83.06-25.66.1c-1,0-2.21,0-2.24-1.38s1.14-1.55,2.14-1.65c3.64-.38,7.3.16,10.94-.37,5.93-.86,8.53-3.71,8.5-9.61,0-1.08,0-1.63,1.23-1.22,1,.91.7,2.14.72,3.25,0,3.34.8,6.34,3.55,8.57C114.26,257.24,115,257.93,114.39,259Z" transform="translate(-23.89 -73.41)"/><path class="cls-17" d="M183.21,203.66a49.73,49.73,0,0,0-2.07-19.32,5.3,5.3,0,0,1-.31-2.19c6,6.82,7.73,15,7.22,23.78-.11,1.89-.5,3.77-.8,5.94Z" transform="translate(-23.89 -73.41)"/><path class="cls-18" d="M66,99.15c-7.89-1.44-15.17-.15-21.51,5a17.41,17.41,0,0,0-5.07,7.23c-.31.76-.64,1.5-1,2.25-.36-4.34,2-7.42,4.85-10.21a27.35,27.35,0,0,1,13.05-7,24,24,0,0,0,10.52-5.38c1.9.8,1.07,2.32.87,3.6-.11.71-.73,1.29-.94,2A4,4,0,0,0,66,99.15Z" transform="translate(-23.89 -73.41)"/><path class="cls-3" d="M83.81,100.74c-2.92-1.28-5.81-2.6-9.14-1.61a1.12,1.12,0,0,1-1.3-.45c3.91-2.88,5.76-6.93,6.56-11.57C82.35,86.82,84.6,89,85,91.85A17.67,17.67,0,0,1,84.54,97c-.18,1.21-.35,2.43-.6,3.63Z" transform="translate(-23.89 -73.41)"/><path class="cls-19" d="M67.89,112.73c-4.51,1-9.11,1.54-13.42,3.32-4.69,1.94-9.29,4-12.57,8.11l-5.8.47C45.06,115.19,56,112.61,67.89,112.73Z" transform="translate(-23.89 -73.41)"/><path class="cls-17" d="M181.34,129.67l2-.08c.5,1.07-.61.9-1,1.1a41.16,41.16,0,0,0-10,7.23c-2.43,2.54-5.29,3-8.47,3.12.66-3,3.45-4.1,5.45-5.81C172.75,132.29,177,130.8,181.34,129.67Z" transform="translate(-23.89 -73.41)"/><path class="cls-20" d="M69.77,201.09c2.9.38,5.78,1.37,8.72.37a11.32,11.32,0,0,0,6.21-5c1.15-1.88,2.31-1.89,3.76-.3C85.33,204.4,75.56,207,69.77,201.09Z" transform="translate(-23.89 -73.41)"/><path class="cls-21" d="M128.88,204.63c2,.93,3.93.44,5.9,0,.63,4.38-.95,8-3.89,11.13-.49.52-1.21,1.17-1.93.71s-.37-1.31-.19-2C128.81,211.2,128.84,207.91,128.88,204.63Z" transform="translate(-23.89 -73.41)"/><path class="cls-22" d="M101,239.51c3.37,2.34,3.71,5.46,3.24,8.81a3.64,3.64,0,0,1-1.48,2.52c-1.3,1-2.3,1.31-2.61-.9A20.34,20.34,0,0,1,101,239.51Z" transform="translate(-23.89 -73.41)"/><path class="cls-23" d="M141.31,203.12l.53-.49c.52-.67.65-1.86,1.95-1.54a17.87,17.87,0,0,1-1.61,11.14c-.39.85-.73,2.07-2.06,1.76s-1.14-1.37-1.12-2.42c0-2.49,0-5-.07-7.47,1.84,1.09.78,2.64.76,3.83C140.3,206.52,140.26,204.63,141.31,203.12Z" transform="translate(-23.89 -73.41)"/><path class="cls-24" d="M155.35,220.61c-.53-.4-.15-.7.13-1a21.5,21.5,0,0,0,6.35-14.15c0-.29.29-.55.44-.83,1.12,2,2.25,4,2.11,6.46A17.5,17.5,0,0,1,155.35,220.61Z" transform="translate(-23.89 -73.41)"/><path class="cls-25" d="M83.94,100.61a25.08,25.08,0,0,1,.31-6.11c.76-3.74-.91-6.41-4.32-7.39-.15-1.47-.16-2.94,1.62-3.42,1.93-.53,2.64.91,3.28,2.29,1.77,3.83,1.5,7.71.24,11.6-.33,1-.9,2-.66,3.1Z" transform="translate(-23.89 -73.41)"/><path class="cls-26" d="M93.84,197.47a8.2,8.2,0,0,0,7.3-6.39,2.61,2.61,0,0,1,2.39-1.89c.92-.09,1.29.6,1.41,1.42a11.31,11.31,0,0,1-2.46,5.33C100.13,198.72,97.34,199.21,93.84,197.47Z" transform="translate(-23.89 -73.41)"/><path class="cls-27" d="M128.77,214.49l.28,2a14.84,14.84,0,0,0,5.73-11.86l.41-.13a29.21,29.21,0,0,1-4.07,15.71c-.44.79-.94,1.72-2.09,1.37s-1.11-1.44-.85-2.47C128.55,217.61,128.09,216,128.77,214.49Z" transform="translate(-23.89 -73.41)"/><path class="cls-28" d="M52.39,201.48c3.61.26,7.15.48,10-2.52.88-.93,2-.34,2.62.76C61.6,205.26,56.61,206,52.39,201.48Z" transform="translate(-23.89 -73.41)"/><path class="cls-29" d="M46.07,136.16c.41,1.48.82,3,1.24,4.44-3.15,4.53-8.14,5.23-13,1.71,2.45-.32,4.86,0,7.15-.76C44.49,140.61,45.92,139,46.07,136.16Z" transform="translate(-23.89 -73.41)"/><path class="cls-30" d="M114.39,259c-.22-.44-.32-1-.67-1.29-3.83-3-4.67-7.06-4.38-11.59,0-.41,0-.83,0-1.25,1.3-.68,1.3.18,1.33,1.1a25.33,25.33,0,0,0,.68,6.13c.91,3.2,2.28,4.37,5.54,4.66.49.05,1,.12,1.47.19.81.12,1.54.48,1.39,1.38s-.94.8-1.62.79Z" transform="translate(-23.89 -73.41)"/><path class="cls-31" d="M46,130.15c-2.1.37-4-.85-6.27-.25-3.74,1-6.93,2.56-9.18,5.8-.23.34-.5,1-1.14.47,1.79-4.82,5.05-7.79,10.33-8.22A7.13,7.13,0,0,1,46,130.15Z" transform="translate(-23.89 -73.41)"/><path class="cls-32" d="M77.82,259c-1.41,0-2.82,0-4.23,0a1.37,1.37,0,1,1-.29-2.72c3-.7,5.94-.34,8.91-.27,1.18,0,.5,1.16.59,1.8s0,1.3-1,1.27c-1.32,0-2.65,0-4,0Z" transform="translate(-23.89 -73.41)"/><path class="cls-33" d="M37.89,199c2.45-.48,4.78-1,6.62-3.05.86-1,2.14-.43,2.44,1.11a22.28,22.28,0,0,1-2.16,2.65C42.42,201.91,40.07,201.63,37.89,199Z" transform="translate(-23.89 -73.41)"/><path class="cls-34" d="M119.81,216c1-2.76,2.75-5.28,3-8.31l.53-.53c.53-.5.9-1.32,1.87-.91C126.32,211.06,124.21,214.15,119.81,216Z" transform="translate(-23.89 -73.41)"/><path class="cls-34" d="M96,240.63c-1.69.88-3,.46-3.89-1.2-.6-1.07-1.29-2.09-2.08-3.36a20.22,20.22,0,0,1,5.88,1.49C96.78,238.55,96.13,239.6,96,240.63Z" transform="translate(-23.89 -73.41)"/><path class="cls-35" d="M96.71,252c-1.12.86-2.37.24-3.56.3-1,.05-.73-.58-.44-1.18a8.76,8.76,0,0,0,.81-4.36c-.09-1.32.1-2.29,1.78-2.21s.81,1.44,1,2.22a3.72,3.72,0,0,1-.08,1.23c-.34.42-.79-.78-.8-.1C95.42,249.36,95.32,251,96.71,252Z" transform="translate(-23.89 -73.41)"/><path class="cls-11" d="M143.79,201.09l-1.95,1.54c0-4.1-.88-8.08-1.47-12.11A25.76,25.76,0,0,1,143.79,201.09Z" transform="translate(-23.89 -73.41)"/><path class="cls-36" d="M66.8,96.71c.13-1.87,1.43-3.73.07-5.62.8-1,1.6-2,2.41-3A8.61,8.61,0,0,1,66.8,96.71Z" transform="translate(-23.89 -73.41)"/><path class="cls-37" d="M110.42,240.63c-.58-3.28,1.59-5.6,2.88-8.22a8.46,8.46,0,0,1,1.06-1.36c.45-.1.72,0,.51.53a49.3,49.3,0,0,0-3.28,7.62C111.41,239.84,111.19,240.47,110.42,240.63Z" transform="translate(-23.89 -73.41)"/><path class="cls-38" d="M96.71,252c-.88,0-1.75-.16-1.79-1.23a18.79,18.79,0,0,1,.21-5.75c1.23.91.32,2.27,1.13,3Z" transform="translate(-23.89 -73.41)"/><path class="cls-39" d="M125.23,206.2c-.64.28-1.09.94-1.87.91.48-3,.55-6.09,1.54-9C124.37,200.82,125.34,203.49,125.23,206.2Z" transform="translate(-23.89 -73.41)"/><path class="cls-40" d="M141.31,203.12c.21,2-.58,3.79-1.67,5.71-.7-1.71.19-3.35-.71-4.73l0-.57Z" transform="translate(-23.89 -73.41)"/><path class="cls-41" d="M96,240.63c-1-1,.3-2.06-.09-3.07.64,0,1.43-.08,1.46.8A2,2,0,0,1,96,240.63Z" transform="translate(-23.89 -73.41)"/><path class="cls-42" d="M41.41,174.14c-.16.28-.32.56-.49.84a3.94,3.94,0,0,1-2-.55C39.69,173.87,40.57,174.15,41.41,174.14Z" transform="translate(-23.89 -73.41)"/><path class="cls-43" d="M114.87,231.58l-.51-.53,1-1.49.56.54Z" transform="translate(-23.89 -73.41)"/><path class="cls-44" d="M155.79,171.6l.59,0-1.55,1C154.35,171.53,155.26,171.74,155.79,171.6Z" transform="translate(-23.89 -73.41)"/><path d="M72.85,140.71a9.37,9.37,0,0,1-9.46-9.48,9.58,9.58,0,0,1,9.55-9.5,9.46,9.46,0,0,1,9.51,9.71A9.19,9.19,0,0,1,72.85,140.71Z" transform="translate(-23.89 -73.41)"/><path class="cls-45" d="M67.29,128.42c.08-1.77,1-2.8,2.77-2.81a2.49,2.49,0,0,1,2.69,2.62A2.52,2.52,0,0,1,70,131,2.56,2.56,0,0,1,67.29,128.42Z" transform="translate(-23.89 -73.41)"/></svg>