<svg xmlns="http://www.w3.org/2000/svg" width="25.608" height="31.652" viewBox="0 0 25.608 31.652"><defs><style>.a{fill:#00ffb1;}</style></defs><g transform="translate(-48.886)"><g transform="translate(48.886)"><path class="a" d="M72.2,5.5a12.78,12.78,0,0,0-21.012,0A12.782,12.782,0,0,0,49.7,17.28a10.066,10.066,0,0,0,1.855,3.063l9.3,10.92a1.106,1.106,0,0,0,1.685,0l9.294-10.917a10.076,10.076,0,0,0,1.855-3.059A12.784,12.784,0,0,0,72.2,5.5Zm-.587,11.008a7.894,7.894,0,0,1-1.46,2.391l-.005.006L61.69,28.838,53.231,18.9a7.9,7.9,0,0,1-1.462-2.4A10.573,10.573,0,0,1,53,6.762a10.566,10.566,0,0,1,17.371,0A10.575,10.575,0,0,1,71.609,16.512Z" transform="translate(-48.886)"/></g><g transform="translate(55.492 6.566)"><path class="a" d="M161.952,106.219a6.2,6.2,0,1,0,6.2,6.2A6.2,6.2,0,0,0,161.952,106.219Zm0,10.182a3.984,3.984,0,1,1,3.984-3.984A3.989,3.989,0,0,1,161.952,116.4Z" transform="translate(-155.754 -106.219)"/></g></g></svg>