<svg xmlns="http://www.w3.org/2000/svg" width="33.379" height="33.379" viewBox="0 0 33.379 33.379"><defs><style>.a{fill:#fff;}</style></defs><path class="a" d="M32.594,12.889l-2.565-.558A13.962,13.962,0,0,0,29.2,10.34l1.42-2.209a1,1,0,0,0-.134-1.245l-4-4a1,1,0,0,0-1.245-.134l-2.209,1.42a13.962,13.962,0,0,0-1.991-.826L20.49.785A1,1,0,0,0,19.516,0H13.864a1,1,0,0,0-.975.785l-.558,2.565a13.962,13.962,0,0,0-1.991.826L8.131,2.756a1,1,0,0,0-1.245.134l-4,4a1,1,0,0,0-.134,1.245l1.42,2.209a13.962,13.962,0,0,0-.826,1.991l-2.565.558A1,1,0,0,0,0,13.864v5.652a1,1,0,0,0,.785.975l2.565.558a13.962,13.962,0,0,0,.826,1.991l-1.42,2.209a1,1,0,0,0,.134,1.245l4,4a1,1,0,0,0,1.245.134L10.34,29.2a13.962,13.962,0,0,0,1.991.826l.558,2.565a1,1,0,0,0,.975.785h5.652a1,1,0,0,0,.975-.785l.558-2.565a13.962,13.962,0,0,0,1.991-.826l2.209,1.42a1,1,0,0,0,1.245-.134l4-4a1,1,0,0,0,.134-1.245L29.2,23.039a13.962,13.962,0,0,0,.826-1.991l2.565-.558a1,1,0,0,0,.785-.975V13.864A1,1,0,0,0,32.594,12.889Zm-9.92,3.8a5.984,5.984,0,1,1-5.984-5.984A5.991,5.991,0,0,1,22.674,16.69Zm0,0"/></svg>