<svg xmlns="http://www.w3.org/2000/svg" width="18.085" height="18.085" viewBox="0 0 18.085 18.085"><defs><style>.a{fill:#2e8b57;}</style></defs><g transform="translate(0 -0.002)"><g transform="translate(0 0.002)"><path class="a" d="M17.6,2.937,15.137.469a1.681,1.681,0,0,0-2.326,0L1.763,11.627a.414.414,0,0,0-.1.177L.015,17.563a.411.411,0,0,0,.508.509l5.754-1.646a.413.413,0,0,0,.177-.1L17.6,5.264a1.646,1.646,0,0,0,0-2.327ZM11.02,3.46l1.513,1.513-7.9,7.9-.567-1.134a.411.411,0,0,0-.368-.227H3.041ZM1.009,17.078,1.545,15.2l1.339,1.339Zm4.745-1.355-1.967.562L1.8,14.3l.562-1.967h1.08l.708,1.417a.411.411,0,0,0,.184.184l1.417.708v1.08Zm.822-.676v-.658a.411.411,0,0,0-.227-.368l-1.134-.567,7.9-7.9,1.513,1.513ZM17.023,4.692l-1.812,1.8L11.6,2.876l1.795-1.811a.841.841,0,0,1,1.162,0l2.466,2.466a.822.822,0,0,1,0,1.161Z" transform="translate(0 -0.002)"/></g></g></svg>