<svg id="user" xmlns="http://www.w3.org/2000/svg" width="29.304" height="35.124" viewBox="0 0 29.304 35.124">
  <path id="Tracé_246" data-name="Tracé 246" d="M95.491,16.919a8.186,8.186,0,0,0,5.982-2.479,8.185,8.185,0,0,0,2.478-5.981,8.187,8.187,0,0,0-2.479-5.981,8.458,8.458,0,0,0-11.963,0,8.186,8.186,0,0,0-2.479,5.981,8.185,8.185,0,0,0,2.479,5.982A8.188,8.188,0,0,0,95.491,16.919Zm0,0" transform="translate(-81.061)" fill="#fff"/>
  <path id="Tracé_247" data-name="Tracé 247" d="M29.233,257.359a20.9,20.9,0,0,0-.285-2.219,17.485,17.485,0,0,0-.546-2.231,11.021,11.021,0,0,0-.917-2.081,7.853,7.853,0,0,0-1.383-1.8,6.1,6.1,0,0,0-1.987-1.249,6.867,6.867,0,0,0-2.537-.459,2.575,2.575,0,0,0-1.375.583c-.412.269-.894.58-1.432.923a8.207,8.207,0,0,1-1.853.817,7.2,7.2,0,0,1-4.534,0,8.187,8.187,0,0,1-1.852-.816c-.533-.341-1.015-.651-1.434-.924a2.571,2.571,0,0,0-1.374-.583,6.858,6.858,0,0,0-2.536.46A6.094,6.094,0,0,0,3.2,249.025a7.853,7.853,0,0,0-1.383,1.8A11.043,11.043,0,0,0,.9,252.908a17.528,17.528,0,0,0-.546,2.231,20.822,20.822,0,0,0-.285,2.22c-.047.672-.07,1.37-.07,2.074a5.832,5.832,0,0,0,1.732,4.412A6.235,6.235,0,0,0,6.2,265.474H23.108a6.234,6.234,0,0,0,4.463-1.628,5.83,5.83,0,0,0,1.732-4.413C29.3,258.726,29.28,258.028,29.233,257.359Zm0,0" transform="translate(0 -230.35)" fill="#fff"/>
</svg>
