<svg id="Composant_1_1" data-name="Composant 1 – 1" xmlns="http://www.w3.org/2000/svg" width="43.594" height="26.08" viewBox="0 0 43.594 26.08">
  <path id="Tracé_73" data-name="Tracé 73" d="M163.093,209.864l-5.085-14.269a.979.979,0,0,0-.922-.65h-3.1a.978.978,0,0,0-.915,1.323l8.161,21.65a.979.979,0,0,0,.915.633h3.719a.979.979,0,0,0,.915-.634l8.131-21.65a.978.978,0,0,0-.915-1.322h-3.033a.977.977,0,0,0-.921.649l-5.112,14.272A.978.978,0,0,1,163.093,209.864Zm0,0" transform="translate(-152.034 -193.676)" fill="#fff"/>
  <path id="Tracé_74" data-name="Tracé 74" d="M263.762,203.616c-2.758-.762-4.448-1.315-4.448-3.013,0-2.3,2.1-2.547,3-2.547l.171,0c2.078.058,3.108,1.264,3.207,2.432l.046.538h5.246l-.054-.636c-.344-4.094-3.5-6.638-8.235-6.638-4.965,0-8.3,2.8-8.3,6.977,0,5.015,4.061,6.1,7.324,6.969,2.844.758,4.585,1.318,4.585,3.2,0,1.669-1.321,2.705-3.448,2.705-2.017,0-3.261-1.016-3.418-2.789l-.047-.535h-5.062v.587c0,4.128,3.507,7.01,8.527,7.01,5.471,0,8.334-3.607,8.334-7.171C271.192,205.669,267.073,204.531,263.762,203.616Zm0,0" transform="translate(-228.576 -192.776)" fill="#fff"/>
  <path id="Tracé_75" data-name="Tracé 75" d="M162.85,216.505h-3.718a1.966,1.966,0,0,1-1.831-1.267l-8.161-21.65a1.957,1.957,0,0,1,1.83-2.647h3.1a1.96,1.96,0,0,1,1.843,1.3l5.086,14.269a.038.038,0,0,0,0,.01l5.107-14.283a1.962,1.962,0,0,1,1.843-1.3h3.033a1.957,1.957,0,0,1,1.83,2.645l-8.13,21.65A1.966,1.966,0,0,1,162.85,216.505ZM150.97,192.9l8.162,21.65h3.718l8.131-21.65h-3.033l-5.112,14.272a1.935,1.935,0,0,1-1.841,1.3h0a1.935,1.935,0,0,1-1.842-1.3L154.066,192.9Zm0,0" transform="translate(-149.014 -190.651)" fill="#fff"/>
  <path id="Tracé_76" data-name="Tracé 76" d="M259.834,215.834c-5.6,0-9.506-3.285-9.506-7.989v-.587a.978.978,0,0,1,.978-.978h5.063a.979.979,0,0,1,.974.892l.047.535c.111,1.259.932,1.9,2.444,1.9.742,0,2.469-.168,2.469-1.727,0-1-.721-1.417-3.859-2.254-3.206-.855-8.05-2.147-8.05-7.914,0-4.758,3.729-7.957,9.279-7.957,5.209,0,8.824,2.958,9.209,7.534l.053.635a.979.979,0,0,1-.974,1.061h-5.246a.98.98,0,0,1-.975-.9l-.045-.537c-.058-.682-.685-1.494-2.26-1.538l-.158,0c-2.01,0-2.01,1.181-2.01,1.569,0,.883.977,1.31,3.729,2.07,3.245.9,8.149,2.252,8.149,8.033C269.146,211.734,265.947,215.834,259.834,215.834Zm-7.536-7.6c.22,3.342,3.257,5.641,7.536,5.641,4.829,0,7.355-3.116,7.355-6.194,0-3.985-2.782-5.061-6.713-6.147h0c-2.656-.734-5.164-1.427-5.164-3.955,0-2.174,1.526-3.525,3.982-3.525l.185,0c2.473.07,3.819,1.527,4.115,2.97h3.291c-.474-3.34-3.138-5.318-7.211-5.318-4.449,0-7.322,2.355-7.322,6,0,3.959,2.734,4.993,6.6,6.023,2.731.729,5.311,1.417,5.311,4.144,0,2.237-1.737,3.684-4.426,3.684-2.375,0-4.01-1.264-4.348-3.324Zm0,0" transform="translate(-225.551 -189.754)" fill="#fff"/>
</svg>
