<svg id="Composant_1_1" data-name="Composant 1 – 1" xmlns="http://www.w3.org/2000/svg" xmlns:xlink="http://www.w3.org/1999/xlink" width="97" height="91" viewBox="0 0 97 91">
  <defs>
    <clipPath id="clip-path">
      <rect id="Rectangle_93" data-name="Rectangle 93" width="66" height="66" transform="translate(71 308)" fill="#fff" stroke="#707070" stroke-width="1"/>
    </clipPath>
  </defs>
  <rect id="Rectangle_95" data-name="Rectangle 95" width="97" height="91" rx="8" fill="#cdfff7"/>
  <g id="Groupe_de_masques_3" data-name="Groupe de masques 3" transform="translate(-57 -296)" clip-path="url(#clip-path)">
    <g id="Flat" transform="translate(67.586 304.586)">
      <path id="Tracé_1062" data-name="Tracé 1062" d="M33,43.241l-6.828,3.414L23.9,61.448l-5.69,1.138L20.194,44.7a4.555,4.555,0,0,1,2.676-3.657l.077-.034,7.778-3.456Z" fill="#fec9a3"/>
      <path id="Tracé_1063" data-name="Tracé 1063" d="M33,43.241l-6.828,3.414-3.226-5.647,7.778-3.456Z" fill="#f35244"/>
      <path id="Tracé_1064" data-name="Tracé 1064" d="M45.147,39.828H34.138l5.69,18.207-4.552,1.138L28.083,39.648A4.94,4.94,0,0,1,32.718,33H50.069a5.188,5.188,0,0,1-4.922,6.828Z" fill="#fec9a3"/>
      <path id="Tracé_1065" data-name="Tracé 1065" d="M62.586,25.581V38.69H56.9V36.414l-1.138,1.138-1.138-1.138L56.9,31.862V25.034l-3.414-3.414H46.275L50.069,33H37.552l-1.529-5.35-.747-2.616-3.414-2.276H28.448l-2.054,6.163a3.419,3.419,0,0,1-.687,1.188l-8.638,9.718-4.552-3.414,1.991-2.276H12.517l1.138-2.276H16.5l3.983-4.552,3.407-8.517a4.553,4.553,0,0,1,4.227-2.862H53.4a5.122,5.122,0,0,1,3.889,1.788l4.2,4.9A4.554,4.554,0,0,1,62.586,25.581Z" fill="#fec9a3"/>
      <path id="Tracé_1066" data-name="Tracé 1066" d="M62.586,25.581V38.69H56.9V36.414l-1.138,1.138-1.138-1.138L56.9,31.862V25.034l-3.414-3.414H46.275L50.069,33H37.552l-1.529-5.35a65.917,65.917,0,0,0,8.919-11.719H53.4a5.122,5.122,0,0,1,3.889,1.788l4.2,4.9A4.554,4.554,0,0,1,62.586,25.581Z" fill="#fec093"/>
      <path id="Tracé_1067" data-name="Tracé 1067" d="M39.828,15.931h-5.69V7.966h9.1v4.552a3.414,3.414,0,0,1-3.414,3.414Z" fill="#fec9a3"/>
      <path id="Tracé_1068" data-name="Tracé 1068" d="M43.241,7.966h-5.69l-3.414,2.276V5.69a2.276,2.276,0,0,1,2.276-2.276h6.828a2.276,2.276,0,0,1,0,4.552Z" fill="#ffb531"/>
      <path id="Tracé_1069" data-name="Tracé 1069" d="M45.147,39.828H34.138V33H50.069a5.188,5.188,0,0,1-4.922,6.828Z" fill="#f35244"/>
      <path id="Tracé_1070" data-name="Tracé 1070" d="M64.862,54.567a5.108,5.108,0,0,1-2.338,4.272,26.266,26.266,0,0,1-9.671,3.836L17.941,68.99a26.461,26.461,0,0,1-4.721.424l-.354,0a26.5,26.5,0,0,1-5.358-.62A5.186,5.186,0,0,1,3.5,64.714a4.986,4.986,0,0,1-.088-.936,5.108,5.108,0,0,1,2.338-4.272,26.266,26.266,0,0,1,9.671-3.836l24.5-4.432,10.409-1.883a26.5,26.5,0,0,1,10.433.2,5.186,5.186,0,0,1,4.006,4.077,4.985,4.985,0,0,1,.088.936Z" fill="#60d1e0"/>
      <path id="Tracé_1071" data-name="Tracé 1071" d="M64.862,54.567a5.108,5.108,0,0,1-2.338,4.272,26.266,26.266,0,0,1-9.671,3.836L17.941,68.99a26.461,26.461,0,0,1-4.721.424l-.354,0a68.371,68.371,0,0,0,27.06-18.173l10.409-1.883a26.5,26.5,0,0,1,10.433.2,5.186,5.186,0,0,1,4.006,4.077A4.986,4.986,0,0,1,64.862,54.567Z" fill="#5ac6d4"/>
      <path id="Tracé_1072" data-name="Tracé 1072" d="M69.414,54.621A14.793,14.793,0,0,1,54.621,69.414H14.793a15.372,15.372,0,0,1,9.9-7.108L49.7,56.835A7.123,7.123,0,0,0,52.46,44.184l-1.253-.943h6.828A11.379,11.379,0,0,1,69.414,54.621Z" fill="#348fd9"/>
      <g id="Groupe_558" data-name="Groupe 558">
        <path id="Tracé_1073" data-name="Tracé 1073" d="M59.063,56.629a12.892,12.892,0,0,1-8.148,5.764L32.7,66.26a8.878,8.878,0,0,0-5.116,3.153H24.754c.209-.275.38-.5.479-.643a11.155,11.155,0,0,1,6.991-4.737l18.211-3.866a10.6,10.6,0,0,0,6.694-4.741Z" fill="#2d7dbf"/>
        <path id="Tracé_1074" data-name="Tracé 1074" d="M60.081,54.613l-2.114-.843a10.5,10.5,0,0,0,.665-2.587l2.258.282a12.777,12.777,0,0,1-.81,3.148Z" fill="#2d7dbf"/>
        <path id="Tracé_1075" data-name="Tracé 1075" d="M55.592,65.912a33.677,33.677,0,0,1-6.754,1.929,56.924,56.924,0,0,0-6.5,1.573H34.915l3.424-1.082,2.077-.693A58.389,58.389,0,0,1,48.432,65.6a31.966,31.966,0,0,0,6.3-1.8Z" fill="#2d7dbf"/>
        <path id="Tracé_1076" data-name="Tracé 1076" d="M57.659,64.956l-1.051-2.019c4.328-2.252,6.693-5.416,7.032-9.4l2.268.193C65.5,58.542,62.724,62.32,57.659,64.956Z" fill="#2d7dbf"/>
      </g>
    </g>
  </g>
</svg>
