<svg id="Composant_1_1" data-name="Composant 1 – 1" xmlns="http://www.w3.org/2000/svg" xmlns:xlink="http://www.w3.org/1999/xlink" width="42" height="42" viewBox="0 0 42 42">
  <defs>
    <clipPath id="clip-path">
      <rect id="Rectangle_123" data-name="Rectangle 123" width="27" height="27" transform="translate(182.85 307.85)" fill="#fff" stroke="#707070" stroke-width="1"/>
    </clipPath>
  </defs>
  <g id="Groupe_860" data-name="Groupe 860" transform="translate(-68 -112.252)">
    <path id="Tracé_297" data-name="Tracé 297" d="M21,0A21,21,0,1,1,0,21,21,21,0,0,1,21,0Z" transform="translate(68 112.252)" fill="#f6fba6"/>
  </g>
  <g id="Groupe_de_masques_8" data-name="Groupe de masques 8" transform="translate(-174.85 -300.102)" clip-path="url(#clip-path)">
    <g id="yoga" transform="translate(184.39 308)">
      <g id="Groupe_861" data-name="Groupe 861" transform="translate(0 0)">
        <path id="Tracé_1342" data-name="Tracé 1342" d="M4.971,34.278c-.194.3-1.917,3.006-2.138,2.377A1.682,1.682,0,0,0,.5,35.876c-1.024.6-.306,2.7.727,2.7h2.4l3.842-.285c2.811-3.168,2.94-6.795.53-10.855-2.044,0-2.842,1.2-2.84,4.193v.465C5.158,33.091,5.308,33.762,4.971,34.278Zm0,0" transform="translate(0 -16.273)" fill="#ffdda6" fill-rule="evenodd"/>
        <path id="Tracé_1343" data-name="Tracé 1343" d="M41.438,38.591h2.4c1.033,0,1.751-2.095.727-2.7a1.684,1.684,0,0,0-2.337.781c-.222.63-1.943-2.077-2.138-2.377-.337-.518-.187-1.187-.187-2.185v-.466c0-2.992-.8-4.191-2.84-4.193h0C34.058,31.721,34.86,38.573,41.438,38.591Zm0,0" transform="translate(-20.993 -16.285)" fill="#ffdda6" fill-rule="evenodd"/>
        <path id="Tracé_1344" data-name="Tracé 1344" d="M17.654,29.771a3.749,3.749,0,0,0,.286,1.649,1.9,1.9,0,0,0,.178.3,1.26,1.26,0,0,0,.352.335,4.775,4.775,0,0,0,3.836.57c.245-.069.164-.066.409,0a5.01,5.01,0,0,0,3.83-.57,1.441,1.441,0,0,0,.53-.626,3.95,3.95,0,0,0,.286-1.657,3.716,3.716,0,0,0-.816-2.337H18.47a3.4,3.4,0,0,0-.776,1.855A4.722,4.722,0,0,0,17.654,29.771Zm0,0" transform="translate(-10.472 -16.273)" fill="#64b0d9" fill-rule="evenodd"/>
        <path id="Tracé_1345" data-name="Tracé 1345" d="M18.358,34.436v5.957l4.929,1.919,4.205-1.919V34.442a1.431,1.431,0,0,1-.529.626,5,5,0,0,1-3.83.57c-.245-.064-.164-.067-.409,0a4.776,4.776,0,0,1-3.836-.57,1.257,1.257,0,0,1-.352-.335A1.872,1.872,0,0,1,18.358,34.436Zm0,0" transform="translate(-10.89 -20.427)" fill="#64b0d9" fill-rule="evenodd"/>
        <path id="Tracé_1346" data-name="Tracé 1346" d="M12.934,50.317l7.391,3.413,6.156-3.413-2.207-1.237H15.141Zm0,0" transform="translate(-7.672 -29.113)" fill="#0f941e" fill-rule="evenodd"/>
        <path id="Tracé_1347" data-name="Tracé 1347" d="M17.654,32.449A3.749,3.749,0,0,0,17.94,34.1a1.5,1.5,0,0,0,.53.634,4.775,4.775,0,0,0,3.836.57c.245-.069.164-.066.409,0a5.01,5.01,0,0,0,3.83-.57,1.441,1.441,0,0,0,.53-.626,3.949,3.949,0,0,0,.286-1.657,4.793,4.793,0,0,0-.043-.5,3.094,3.094,0,0,1-.243.888,1.439,1.439,0,0,1-.53.626,5.015,5.015,0,0,1-3.83.57c-.245-.066-.164-.069-.409,0a4.775,4.775,0,0,1-3.836-.57,1.275,1.275,0,0,1-.352-.335,1.893,1.893,0,0,1-.178-.3,2.864,2.864,0,0,1-.245-.87l0,.008A4.722,4.722,0,0,0,17.654,32.449Zm0,0" transform="translate(-10.472 -18.951)" fill="#4a83c9" fill-rule="evenodd"/>
        <path id="Tracé_1348" data-name="Tracé 1348" d="M23.652,56.732c-4.65,0-5.843,3.77-4.712,3.77h2.086A5.333,5.333,0,0,1,23.652,56.732Zm0,0" transform="translate(-10.999 -33.652)" fill="#ffdda6" fill-rule="evenodd"/>
        <path id="Tracé_1349" data-name="Tracé 1349" d="M8.078,53.076c-1.154,1.611-.7,4.55,2.625,4.55h1.691c-1.131,0,.061-3.77,4.712-3.77-2.228-1.386-5.52-2.279-7.391-1.876a3.851,3.851,0,0,0-1.63,1.087l0,0Zm0,0" transform="translate(-4.452 -30.775)" fill="#50d960" fill-rule="evenodd"/>
        <path id="Tracé_1350" data-name="Tracé 1350" d="M27.273,53.972a5.334,5.334,0,0,0-2.626,3.77h8.1c2.644,0,3.22-3.048,2.334-4.55h-.02a3.824,3.824,0,0,0-1.636-1.1A11.189,11.189,0,0,0,27.273,53.972Zm0,0" transform="translate(-14.62 -30.892)" fill="#50d960" fill-rule="evenodd"/>
        <path id="Tracé_1351" data-name="Tracé 1351" d="M7.559,57.847c-.289,1.545.562,3.317,3.143,3.317h1.691c-.413,0-.516-.5-.255-1.139H10.7C8.748,60.024,7.786,59.01,7.559,57.847Zm0,0" transform="translate(-4.452 -34.313)" fill="#0f941e" fill-rule="evenodd"/>
        <path id="Tracé_1352" data-name="Tracé 1352" d="M18.684,63.2c-.26.637-.158,1.139.255,1.139h2.086A7.2,7.2,0,0,1,21.37,63.2Zm0,0" transform="translate(-10.999 -37.488)" fill="#fcc368" fill-rule="evenodd"/>
        <path id="Tracé_1353" data-name="Tracé 1353" d="M24.992,59.676a7.2,7.2,0,0,0-.344,1.139h8.1c2.139,0,2.926-2,2.676-3.556a2.64,2.64,0,0,1-2.676,2.416Zm0,0" transform="translate(-14.62 -33.965)" fill="#0f941e" fill-rule="evenodd"/>
        <path id="Tracé_1354" data-name="Tracé 1354" d="M.077,49.456c-.3.845.321,2.181,1.146,2.181h2.4l0,0,0,0a3.654,3.654,0,0,1,1.429-1.009l-1.409.1h-2.4c-.557,0-1.022-.609-1.172-1.267Zm0,0" transform="translate(0 -29.336)" fill="#fcc368" fill-rule="evenodd"/>
        <path id="Tracé_1355" data-name="Tracé 1355" d="M46.516,50.732a3.737,3.737,0,0,1,1.521,1.054h.02s0,0,0,.006h2.38c.794,0,1.4-1.237,1.175-2.084-.171.619-.618,1.172-1.148,1.172h-2.4A8.02,8.02,0,0,1,46.516,50.732Zm0,0" transform="translate(-27.593 -29.486)" fill="#fcc368" fill-rule="evenodd"/>
        <path id="Tracé_1356" data-name="Tracé 1356" d="M41.681,10.637c-1.793-1.055-.883-4.165-1.388-5.452-.577-1.473-2.324-.876-2.923-.876l-.848,2.775,1.015,3.387a3.227,3.227,0,0,0,4.1,1.057C42.209,11.3,42.3,11,41.681,10.637Zm0,0" transform="translate(-21.664 -2.485)" fill="#b5722f" fill-rule="evenodd"/>
        <path id="Tracé_1357" data-name="Tracé 1357" d="M28.68,23.168V21.015l-1.969-.773L24.73,21v2.167a1.975,1.975,0,1,0,3.949,0Zm0,0" transform="translate(-14.67 -12.007)" fill="#fcc368" fill-rule="evenodd"/>
        <path id="Tracé_1358" data-name="Tracé 1358" d="M26.816,10.456a3.609,3.609,0,0,0,.7-2.095l.006-1.444-4.4-2.753L18.514,6.093a3.784,3.784,0,0,0-.06.648l-.006,1.813c0,1.49,1.27,2.778,2.556,3.5a4.047,4.047,0,0,0,1.98.609,4.868,4.868,0,0,0,1.969-.6A5.411,5.411,0,0,0,26.816,10.456Zm0,0" transform="translate(-10.943 -2.47)" fill="#ffdda6" fill-rule="evenodd"/>
        <path id="Tracé_1359" data-name="Tracé 1359" d="M21.868,3.021c1.5,1.465,2.846,1.828,5.754,1.426V4.27a3.932,3.932,0,0,0-.877-2.446A4.767,4.767,0,0,0,23.094,0,4.7,4.7,0,0,0,18.61,3.623C20.639,4.553,20.766,1.948,21.868,3.021Zm0,0" transform="translate(-11.039 0)" fill="#b5722f" fill-rule="evenodd"/>
        <path id="Tracé_1360" data-name="Tracé 1360" d="M32.55,4.27a3.932,3.932,0,0,0-.877-2.446A4.767,4.767,0,0,0,28.022,0a4.333,4.333,0,0,0-1.1.152A4.82,4.82,0,0,1,30.24,1.965,4.11,4.11,0,0,1,31,3.476q.041.161.069.326a3.8,3.8,0,0,1,.049.608v.178c.434-.02.909-.067,1.434-.141V4.27Zm0,0" transform="translate(-15.968 0)" fill="#8a541e" fill-rule="evenodd"/>
        <path id="Tracé_1361" data-name="Tracé 1361" d="M33.444,12.376l.006-1.444c-.525.074-1,.121-1.434.141l0,.969,0,.475a3.618,3.618,0,0,1-.7,2.095,4.959,4.959,0,0,1-.688.779,5.818,5.818,0,0,1-1.175.83,5.349,5.349,0,0,1-1.008.42,2.091,2.091,0,0,0,.473.035,4.868,4.868,0,0,0,1.969-.6,5.412,5.412,0,0,0,1.862-1.61A3.61,3.61,0,0,0,33.444,12.376Zm0,0" transform="translate(-16.867 -6.484)" fill="#fcc368" fill-rule="evenodd"/>
        <path id="Tracé_1362" data-name="Tracé 1362" d="M44.9,10.637c-1.793-1.055-.883-4.165-1.388-5.452a1.553,1.553,0,0,0-1.561-1,1.744,1.744,0,0,1,.546.758c.575,1.467-.464,5.014,1.581,6.216.289.17.442.326.479.47.1-.032.2-.069.3-.106C45.431,11.3,45.522,11,44.9,10.637Zm0,0" transform="translate(-24.886 -2.485)" fill="#8a541e" fill-rule="evenodd"/>
        <path id="Tracé_1363" data-name="Tracé 1363" d="M28.68,24.468v-.9a4.868,4.868,0,0,1-1.969.6,4.047,4.047,0,0,1-1.98-.609v.878l.02.012a4.045,4.045,0,0,0,1.98.608,4.191,4.191,0,0,0,.967-.178c.234-.07.162.191.161.259v.158a1.974,1.974,0,0,1-1.2,1.818H26.7a1.976,1.976,0,0,0,1.976-1.977Zm0,0" transform="translate(-14.67 -13.971)" fill="#eda93b" fill-rule="evenodd"/>
      </g>
      <path id="Tracé_1364" data-name="Tracé 1364" d="M23.757,15.221h0a1.5,1.5,0,0,1-1.013-.335.408.408,0,0,1,.583-.572,1.091,1.091,0,0,0,.87,0,.408.408,0,1,1,.581.574A1.5,1.5,0,0,1,23.757,15.221Zm0,0" transform="translate(-13.421 -8.418)" fill="#8a541e"/>
      <path id="Tracé_1365" data-name="Tracé 1365" d="M31.953,15.222h-.005a1.5,1.5,0,0,1-1.01-.335.408.408,0,0,1,.582-.572,1.088,1.088,0,0,0,.871,0,.408.408,0,1,1,.579.575A1.506,1.506,0,0,1,31.953,15.222Zm0,0" transform="translate(-18.283 -8.418)" fill="#8a541e"/>
    </g>
  </g>
</svg>
