<svg id="Composant_3_1" data-name="Composant 3 – 1" xmlns="http://www.w3.org/2000/svg" xmlns:xlink="http://www.w3.org/1999/xlink" width="42" height="42" viewBox="0 0 42 42">
  <defs>
    <clipPath id="clip-path">
      <rect id="Rectangle_93" data-name="Rectangle 93" width="23" height="23" transform="translate(71.384 308.384)" fill="#fff" stroke="#707070" stroke-width="1"/>
    </clipPath>
  </defs>
  <g id="Groupe_628" data-name="Groupe 628" transform="translate(-68 -112.252)">
    <path id="Tracé_297" data-name="Tracé 297" d="M21,0A21,21,0,1,1,0,21,21,21,0,0,1,21,0Z" transform="translate(68 112.252)" fill="#ccfff8"/>
  </g>
  <g id="Groupe_de_masques_3" data-name="Groupe de masques 3" transform="translate(-61.384 -300.636)" clip-path="url(#clip-path)">
    <g id="Flat" transform="translate(71 308)">
      <path id="Tracé_1062" data-name="Tracé 1062" d="M23.448,39.568l-2.419,1.21-.806,5.241-2.016.4.7-6.337a1.614,1.614,0,0,1,.948-1.3l.027-.012,2.756-1.225Z" transform="translate(-12.966 -25.457)" fill="#fec9a3"/>
      <path id="Tracé_1063" data-name="Tracé 1063" d="M26.508,39.568l-2.419,1.21-1.143-2L25.7,37.552Z" transform="translate(-16.026 -25.457)" fill="#f35244"/>
      <path id="Tracé_1064" data-name="Tracé 1064" d="M33.932,35.419h-3.9l2.016,6.451-1.613.4-2.549-6.917A1.75,1.75,0,0,1,29.528,33h6.147a1.838,1.838,0,0,1-1.744,2.419Z" transform="translate(-19.146 -22.518)" fill="#fec9a3"/>
      <path id="Tracé_1065" data-name="Tracé 1065" d="M30.257,19.35v4.645H28.241v-.806l-.4.4-.4-.4.806-1.613V19.156l-1.21-1.21H24.478l1.344,4.032H21.387l-.542-1.9-.265-.927-1.21-.806h-1.21l-.728,2.184a1.211,1.211,0,0,1-.243.421L14.13,24.4l-1.613-1.21.706-.806h-.706l.4-.806h1.008l1.411-1.613,1.207-3.018a1.613,1.613,0,0,1,1.5-1.014H27a1.815,1.815,0,0,1,1.378.634L29.869,18.3A1.613,1.613,0,0,1,30.257,19.35Z" transform="translate(-9.292 -11.496)" fill="#fec9a3"/>
      <path id="Tracé_1066" data-name="Tracé 1066" d="M45.434,19.35v4.645H43.418v-.806l-.4.4-.4-.4.806-1.613V19.156l-1.21-1.21H39.655L41,21.979H36.564l-.542-1.9a23.354,23.354,0,0,0,3.16-4.152h3a1.815,1.815,0,0,1,1.378.634L45.046,18.3A1.613,1.613,0,0,1,45.434,19.35Z" transform="translate(-24.469 -11.496)" fill="#fec093"/>
      <path id="Tracé_1067" data-name="Tracé 1067" d="M36.154,10.788H34.138V7.966h3.225V9.578A1.21,1.21,0,0,1,36.154,10.788Z" transform="translate(-23.252 -6.353)" fill="#fec9a3"/>
      <path id="Tracé_1068" data-name="Tracé 1068" d="M37.363,5.026H35.347l-1.21.806V4.22a.806.806,0,0,1,.806-.806h2.419a.806.806,0,0,1,0,1.613Z" transform="translate(-23.252 -3.414)" fill="#ffb531"/>
      <path id="Tracé_1069" data-name="Tracé 1069" d="M38.039,35.419h-3.9V33h5.644a1.838,1.838,0,0,1-1.744,2.419Z" transform="translate(-23.252 -22.518)" fill="#f35244"/>
      <path id="Tracé_1070" data-name="Tracé 1070" d="M25.185,50.928a1.81,1.81,0,0,1-.829,1.513A9.306,9.306,0,0,1,20.93,53.8L8.561,56.038a9.375,9.375,0,0,1-1.673.15H6.763a9.389,9.389,0,0,1-1.9-.22,1.837,1.837,0,0,1-1.419-1.444,1.767,1.767,0,0,1-.031-.332,1.81,1.81,0,0,1,.829-1.513,9.306,9.306,0,0,1,3.426-1.359l8.681-1.57,3.688-.667a9.389,9.389,0,0,1,3.7.071A1.837,1.837,0,0,1,25.154,50.6,1.766,1.766,0,0,1,25.185,50.928Z" transform="translate(-3.414 -32.804)" fill="#60d1e0"/>
      <path id="Tracé_1071" data-name="Tracé 1071" d="M31.288,50.928a1.81,1.81,0,0,1-.829,1.513A9.306,9.306,0,0,1,27.033,53.8L14.664,56.038a9.375,9.375,0,0,1-1.673.15h-.125a24.224,24.224,0,0,0,9.587-6.439l3.688-.667a9.389,9.389,0,0,1,3.7.071A1.837,1.837,0,0,1,31.257,50.6,1.767,1.767,0,0,1,31.288,50.928Z" transform="translate(-9.517 -32.804)" fill="#5ac6d4"/>
      <path id="Tracé_1072" data-name="Tracé 1072" d="M34.145,47.273A5.241,5.241,0,0,1,28.9,52.514H14.793A5.446,5.446,0,0,1,18.3,50l8.861-1.938a2.524,2.524,0,0,0,.978-4.482l-.444-.334h2.419a4.032,4.032,0,0,1,4.032,4.032Z" transform="translate(-10.761 -29.13)" fill="#348fd9"/>
      <g id="Groupe_558" data-name="Groupe 558" transform="translate(7.561 16.925)">
        <path id="Tracé_1073" data-name="Tracé 1073" d="M36.91,55.853A4.568,4.568,0,0,1,34.023,57.9l-6.454,1.37a3.146,3.146,0,0,0-1.813,1.117h-1c.074-.1.135-.178.17-.228A3.952,3.952,0,0,1,27.4,58.477l6.452-1.37a3.756,3.756,0,0,0,2.372-1.68Z" transform="translate(-24.754 -53.924)" fill="#2d7dbf"/>
        <path id="Tracé_1074" data-name="Tracé 1074" d="M58.716,52.4l-.749-.3a3.721,3.721,0,0,0,.236-.916l.8.1A4.527,4.527,0,0,1,58.716,52.4Z" transform="translate(-46.2 -51.183)" fill="#2d7dbf"/>
        <path id="Tracé_1075" data-name="Tracé 1075" d="M42.241,64.552a11.932,11.932,0,0,1-2.393.683,20.168,20.168,0,0,0-2.3.557h-2.63l1.213-.384.736-.245a20.687,20.687,0,0,1,2.84-.722,11.326,11.326,0,0,0,2.231-.636Z" transform="translate(-31.315 -59.334)" fill="#2d7dbf"/>
        <path id="Tracé_1076" data-name="Tracé 1076" d="M56.981,57.581l-.372-.715A4.114,4.114,0,0,0,59.1,53.534l.8.068A4.871,4.871,0,0,1,56.981,57.581Z" transform="translate(-45.323 -52.701)" fill="#2d7dbf"/>
      </g>
    </g>
  </g>
</svg>
